<?xml version="1.0" encoding="UTF-8"?>
<svg version="1.1" xmlns="http://www.w3.org/2000/svg" width="500" height="500">
<path d="M0 0 C2.1875 0.3125 2.1875 0.3125 4 1 C4 5 4 5 2.125 6.9375 C1.42375 7.618125 0.7225 8.29875 0 9 C-2.12752205 12.72316358 -2.64405113 16.59806237 -2.6015625 20.83984375 C-1.78873094 23.75864798 -0.54117733 24.48661088 2 26.0625 C3.31677276 26.74146095 4.64605242 27.39858132 6 28 C5.67 27.01 5.34 26.02 5 25 C4.22777117 18.58163907 5.02834191 13.22090366 9 8 C12.55087263 4.65634009 16.19609291 3.73362466 21 3.5 C25.79561162 3.73322123 29.46187182 4.64957093 33 8 C36.44802249 12.71673107 37.74563135 17.14146794 37 23 C35.36929723 27.72903802 33.29622198 31.24912671 30 35 C30.99 35.495 30.99 35.495 32 36 C31.67 37.65 31.34 39.3 31 41 C22.74323813 39.03462716 14.51545212 36.96911715 6.375 34.5625 C5.40046875 34.29143433 5.40046875 34.29143433 4.40625 34.01489258 C-0.45279155 32.5348759 -3.37654399 30.43303415 -7 27 C-9.1145974 22.77080519 -8.50141396 17.58986625 -8 13 C-6.30238602 8.11690186 -4.07014481 3.33405479 0 0 Z M12 13 C9.44740403 17.14145673 9.14638864 21.25865373 10 26 C12.18159145 28.75569447 13.87177494 30.43588747 17 32 C22.73250912 32.50380686 22.73250912 32.50380686 27.875 30.3125 C30.91246683 27.00702139 31.81106858 24.47996278 32.375 20.0625 C31.88684091 16.07586747 30.5720548 14.05865976 28 11 C21.72099872 7.45799928 17.48800175 8.6095986 12 13 Z " fill="#000000" transform="translate(389,274)"/>
<path d="M0 0 C-1.40105562 14.43455992 -3.61233806 28.69835677 -6 43 C-9.50317859 42.60774522 -13.00148732 42.18175029 -16.5 41.75 C-17.48226562 41.64042969 -18.46453125 41.53085937 -19.4765625 41.41796875 C-28.42134702 40.28496271 -35.15204966 38.02991742 -40.8125 30.78515625 C-44.03409369 25.94216837 -44.79615813 20.70412028 -44 15 C-42.1750259 7.94051935 -39.32268362 2.823018 -33 -1 C-24.07720888 -4.6352112 -8.66364635 -4.33182318 0 0 Z M-35.4375 8.5625 C-38.56695028 13.44444244 -38.63311105 18.36355301 -38 24 C-35.24523477 29.50953047 -31.64263457 32.99579886 -25.875 35.1875 C-20.9364422 36.22300406 -16.02847647 36.65446274 -11 37 C-9.27067051 29.84959851 -8.23765613 22.73926793 -7.375 15.4375 C-7.2409375 14.33341797 -7.106875 13.22933594 -6.96875 12.09179688 C-6.64186353 9.39498349 -6.3190373 6.69775124 -6 4 C-7.74565091 3.67211269 -9.49185371 3.34716274 -11.23828125 3.0234375 C-12.21063721 2.84216309 -13.18299316 2.66088867 -14.18481445 2.47412109 C-22.70038917 1.03996568 -29.33218525 2.14409219 -35.4375 8.5625 Z " fill="#000000" transform="translate(248,399)"/>
<path d="M0 0 C1.65 0.33 3.3 0.66 5 1 C4.67 9.58 4.34 18.16 4 27 C6.64 24.36 9.28 21.72 12 19 C13.41917924 17.68823046 14.85118336 16.38965912 16.3125 15.125 C16.94800781 14.57070312 17.58351563 14.01640625 18.23828125 13.4453125 C20 12 20 12 23 10 C23.99 10.33 24.98 10.66 26 11 C26.15178302 20.05638678 25.69037426 28.97582223 25 38 C25.556875 37.43152344 26.11375 36.86304688 26.6875 36.27734375 C41.15435801 21.63942492 41.15435801 21.63942492 46 21 C46.66 21.33 47.32 21.66 48 22 C46.61752424 25.15242443 45.04718224 27.14264001 42.515625 29.4609375 C41.82726562 30.09773438 41.13890625 30.73453125 40.4296875 31.390625 C39.35074219 32.37289062 39.35074219 32.37289062 38.25 33.375 C36.83766208 34.67352314 35.42619113 35.97298991 34.015625 37.2734375 C33.33822266 37.89702148 32.66082031 38.52060547 31.96289062 39.16308594 C29.24032967 41.71091537 26.61584916 44.34302114 24 47 C22.35 46.34 20.7 45.68 19 45 C19.33 36.75 19.66 28.5 20 20 C18.123125 21.711875 16.24625 23.42375 14.3125 25.1875 C13.73153564 25.71625732 13.15057129 26.24501465 12.55200195 26.78979492 C12.07722412 27.22396729 11.60244629 27.65813965 11.11328125 28.10546875 C10.58557129 28.58290527 10.05786133 29.0603418 9.51416016 29.55224609 C7.7627136 31.1801513 7.7627136 31.1801513 5.48046875 33.92578125 C4.25263672 34.95251953 4.25263672 34.95251953 3 36 C-0.1550293 35.62963867 -0.1550293 35.62963867 -3 35 C-2.69090824 30.66641658 -2.37711339 26.33318578 -2.0625 22 C-1.97548828 20.77925781 -1.88847656 19.55851562 -1.79882812 18.30078125 C-1.35161655 12.17232632 -0.84457451 6.08702347 0 0 Z " fill="#000000" transform="translate(304,74)"/>
<path d="M0 0 C2.60173018 9.5765813 4.36668209 19.22326017 6 29 C4.35 29.33 2.7 29.66 1 30 C-0.99701383 22.37140718 -2.67033948 14.77339994 -4 7 C-10.435 7.495 -10.435 7.495 -17 8 C-15.68 15.26 -14.36 22.52 -13 30 C-14.65 30.33 -16.3 30.66 -18 31 C-19.8849413 23.99370876 -21.39700836 17.23589973 -22 10 C-28.93 11.485 -28.93 11.485 -36 13 C-35.69964844 14.46953125 -35.39929688 15.9390625 -35.08984375 17.453125 C-34.70527924 19.38532717 -34.32118937 21.31762385 -33.9375 23.25 C-33.73833984 24.21808594 -33.53917969 25.18617188 -33.33398438 26.18359375 C-33.15029297 27.11816406 -32.96660156 28.05273438 -32.77734375 29.015625 C-32.51812134 30.30388184 -32.51812134 30.30388184 -32.25366211 31.61816406 C-31.99445212 34.05209351 -32.24915391 35.68898463 -33 38 C-34.32 38 -35.64 38 -37 38 C-37.84126612 33.93910105 -38.67161887 29.87604526 -39.5 25.8125 C-39.73847656 24.66201172 -39.97695313 23.51152344 -40.22265625 22.32617188 C-40.44824219 21.21435547 -40.67382812 20.10253906 -40.90625 18.95703125 C-41.11572266 17.93585205 -41.32519531 16.91467285 -41.54101562 15.86254883 C-41.97101791 13.18075268 -42.08705161 10.70948135 -42 8 C-37.63996456 6.45163861 -33.34822024 5.37731845 -28.80859375 4.4921875 C-28.14086441 4.36184113 -27.47313507 4.23149475 -26.78517151 4.09719849 C-25.38296685 3.82467482 -23.98036543 3.55418546 -22.57739258 3.28564453 C-20.43895639 2.87527948 -18.30248432 2.45563017 -16.16601562 2.03515625 C-14.79698336 1.77027268 -13.42784607 1.5059312 -12.05859375 1.2421875 C-10.82423584 1.0035498 -9.58987793 0.76491211 -8.31811523 0.51904297 C-5.46559236 0.07283124 -2.87687059 -0.10848391 0 0 Z " fill="#000000" transform="translate(436,199)"/>
<path d="M0 0 C0 1.65 0 3.3 0 5 C-0.79664063 5.03738281 -1.59328125 5.07476562 -2.4140625 5.11328125 C-10.63672471 5.55517335 -10.63672471 5.55517335 -18 9 C-20.28138945 11.75698184 -20.28138945 11.75698184 -19.8125 14.5625 C-19.16627558 17.33255117 -19.16627558 17.33255117 -16 19 C-12.69572694 19.11645015 -9.4568182 19.04503053 -6.15625 18.921875 C-1.42331104 18.81511698 2.49323556 19.33518776 7 21 C9.55964343 23.62363451 10.82104684 25.506943 11.26171875 29.18359375 C11.15019568 32.66428731 10.73408277 35.07799205 8.53515625 37.83984375 C2.42980628 43.30393158 -3.89658099 44.93708526 -12 45 C-14.50583595 44.56014582 -16.60103991 43.88657221 -19 43 C-18.67 41.35 -18.34 39.7 -18 38 C-17.31035156 38.10699219 -16.62070313 38.21398437 -15.91015625 38.32421875 C-9.38202154 39.15702606 -3.87538109 39.29071774 2 36 C4.24740192 33.73236635 4.24740192 33.73236635 5 31 C4.9442592 28.77084833 4.9442592 28.77084833 4 27 C1.67771133 25.83885567 0.22693461 25.84661819 -2.359375 25.7890625 C-3.22820312 25.76070312 -4.09703125 25.73234375 -4.9921875 25.703125 C-6.81491043 25.65148979 -8.63785425 25.6070894 -10.4609375 25.5703125 C-15.68782296 25.38529001 -19.47235901 24.90029399 -24 22 C-26.34143232 19.12642397 -26.54676537 15.75413982 -26.4375 12.09375 C-25.59265822 8.05057862 -23.13794885 5.54537482 -20 3 C-13.8591289 -0.84827922 -7.00355499 -0.31515997 0 0 Z " fill="#000000" transform="translate(207,64)"/>
<path d="M0 0 C5.51151854 3.00628284 8.77630744 9.12622479 10.63671875 15.015625 C11.24787029 18.35395813 11.05646099 21.61234059 11 25 C9.35 25.33 7.7 25.66 6 26 C5.90203125 25.20335937 5.8040625 24.40671875 5.703125 23.5859375 C4.62190018 15.92415472 3.42177509 11.64989342 -1.875 6 C-4.12545807 4.66732769 -4.12545807 4.66732769 -7.25 5.8125 C-8.1575 6.204375 -9.065 6.59625 -10 7 C-10.14576359 11.15426234 -10.20616529 14.31707747 -9 18.3125 C-7.65900481 23.25741977 -7.34021665 27.91024273 -8 33 C-9.80118478 36.00197464 -10.90332732 37.45166366 -14 39 C-17.88440516 39.62498576 -21.46312279 39.81029908 -25.0078125 37.94140625 C-30.92802585 33.21292416 -33.8824625 27.46785659 -34.75 20 C-34.84901934 18.66773974 -34.93821733 17.33450557 -35 16 C-33.35 15.67 -31.7 15.34 -30 15 C-29.82984375 15.80824219 -29.6596875 16.61648438 -29.484375 17.44921875 C-27.88700307 25.59760602 -27.88700307 25.59760602 -23 32 C-20.00293071 33.06948565 -20.00293071 33.06948565 -17 33 C-16.01 32.34 -15.02 31.68 -14 31 C-13.5498985 26.03671861 -14.39474377 21.79265036 -15.625 17 C-17.64952207 7.87512061 -17.64952207 7.87512061 -15 3 C-10.28182043 -1.60310202 -6.05917936 -1.70871106 0 0 Z " fill="#000000" transform="translate(114,314)"/>
<path d="M0 0 C5.22527367 2.85984366 8.11322854 6.43700128 9.79296875 12.15234375 C10.66029645 17.46597207 9.78838142 21.65922474 6.79296875 26.15234375 C2.80931242 30.08288467 -0.3276114 32.30278469 -5.95703125 32.46484375 C-10.83927635 32.40856427 -13.46576371 31.4482223 -17.20703125 28.15234375 C-19.64453125 25.58984375 -19.64453125 25.58984375 -21.20703125 23.15234375 C-19.99880978 19.52767935 -19.32194783 19.39776165 -16.0234375 17.7421875 C-15.17845703 17.30970703 -14.33347656 16.87722656 -13.46289062 16.43164062 C-12.57408203 15.98884766 -11.68527344 15.54605469 -10.76953125 15.08984375 C-9.01918459 14.206384 -7.27040819 13.31980432 -5.5234375 12.4296875 C-4.74427979 12.04031006 -3.96512207 11.65093262 -3.16235352 11.24975586 C-1.06019552 10.18587426 -1.06019552 10.18587426 0.79296875 8.15234375 C-2.38867427 5.58650261 -4.71481919 4.89241675 -8.70703125 5.15234375 C-13.22085026 5.8294166 -15.40618338 7.47623092 -18.20703125 11.15234375 C-18.53703125 12.14234375 -18.86703125 13.13234375 -19.20703125 14.15234375 C-20.85703125 13.82234375 -22.50703125 13.49234375 -24.20703125 13.15234375 C-23.69870645 8.70450172 -22.37133902 6.31665152 -19.20703125 3.15234375 C-13.27898608 -0.97851125 -6.91244322 -2.65486757 0 0 Z M-0.01635742 13.86499023 C-0.67095947 14.24727783 -1.32556152 14.62956543 -2 15.0234375 C-2.71220703 15.43271484 -3.42441406 15.84199219 -4.15820312 16.26367188 C-4.89619141 16.70130859 -5.63417969 17.13894531 -6.39453125 17.58984375 C-7.14412109 18.02361328 -7.89371094 18.45738281 -8.66601562 18.90429688 C-10.51830368 19.97791606 -12.36337375 21.06397056 -14.20703125 22.15234375 C-12.89807405 25.27431853 -12.89807405 25.27431853 -10.20703125 27.15234375 C-5.08332727 27.7596322 -5.08332727 27.7596322 -0.3828125 26.10546875 C1.78125622 24.32391097 3.53101691 22.67624743 4.79296875 20.15234375 C4.83296075 18.15274363 4.83643674 16.15187133 4.79296875 14.15234375 C1.97587739 12.85670595 1.97587739 12.85670595 -0.01635742 13.86499023 Z " fill="#000000" transform="translate(336.20703125,377.84765625)"/>
<path d="M0 0 C3.77423384 3.31533196 6.14307206 6.93208392 7.01953125 11.9140625 C7.2742255 17.55129516 6.40226518 21.0374625 2.57421875 25.3828125 C-1.10098603 28.69946072 -3.63372191 30.20712041 -8.61328125 30.6953125 C-14.05795425 30.24902783 -18.54392124 28.26467251 -22.42578125 24.3828125 C-22.37890625 22.53515625 -22.37890625 22.53515625 -21.42578125 20.3828125 C-19.09765625 18.19921875 -19.09765625 18.19921875 -16.17578125 15.9453125 C-13.15894403 13.60114845 -10.37090547 11.3269176 -7.69140625 8.59765625 C-5.42578125 6.3828125 -5.42578125 6.3828125 -3.42578125 6.3828125 C-3.42578125 5.7228125 -3.42578125 5.0628125 -3.42578125 4.3828125 C-9.9957058 3.21880456 -9.9957058 3.21880456 -16.36328125 4.5703125 C-19.99737794 7.76391262 -21.78655293 10.84341101 -23.42578125 15.3828125 C-24.74578125 15.0528125 -26.06578125 14.7228125 -27.42578125 14.3828125 C-27.30025638 8.35761888 -25.38827037 5.38581225 -21.24609375 1.05078125 C-15.45254041 -4.25790389 -6.46317052 -4.30878035 0 0 Z M-4.68359375 12.0078125 C-5.30878906 12.54921875 -5.93398438 13.090625 -6.578125 13.6484375 C-7.22910156 14.22078125 -7.88007813 14.793125 -8.55078125 15.3828125 C-9.20949219 15.95515625 -9.86820312 16.5275 -10.546875 17.1171875 C-12.17699532 18.53468343 -13.80188358 19.95819209 -15.42578125 21.3828125 C-15.09578125 22.3728125 -14.76578125 23.3628125 -14.42578125 24.3828125 C-8.90199639 25.52465405 -8.90199639 25.52465405 -3.61328125 24.1953125 C-1.33166453 22.30483007 0.18808528 21.00917066 1.57421875 18.3828125 C1.95466428 13.72620185 1.95466428 13.72620185 0.57421875 9.3828125 C-2.07802529 9.3828125 -2.70444018 10.2805512 -4.68359375 12.0078125 Z " fill="#000000" transform="translate(368.42578125,359.6171875)"/>
<path d="M0 0 C4.42484878 2.21242439 7.19476657 4.94799616 10 9 C11.44865941 13.34597823 11.88893053 17.60375247 10.28125 21.9375 C8.18252173 25.86415289 5.70137647 28.5648839 2 31 C1.34 31 0.68 31 0 31 C-5.94 20.605 -5.94 20.605 -12 10 C-12.66 10 -13.32 10 -14 10 C-16.47862452 13.71793677 -16.53102546 16.69279347 -16 21 C-14.49294801 24.76762999 -13.36991639 25.78965539 -9.8125 27.8125 C-8.884375 28.204375 -7.95625 28.59625 -7 29 C-7.495 31.475 -7.495 31.475 -8 34 C-14.22262128 32.40816665 -17.31449585 29.55731664 -20.8125 24.25 C-22.79875204 18.81394178 -22.7635681 14.12995311 -20.8125 8.6875 C-15.63589364 1.0118423 -8.86117882 -1.13568906 0 0 Z M-8 5 C-7.42334609 9.7871428 -5.35917004 13.25128824 -2.9375 17.3125 C-2.56044922 17.95767578 -2.18339844 18.60285156 -1.79492188 19.26757812 C-0.86962507 20.84878152 0.06432681 22.4249146 1 24 C1.66 24 2.32 24 3 24 C5.23099906 21.16834735 5.97897514 19.14454589 6.5 15.5625 C5.83624442 10.83324149 4.34318209 9.34318209 1 6 C-1.95664519 4.5216774 -4.74229737 4.93967217 -8 5 Z " fill="#000000" transform="translate(400,152)"/>
<path d="M0 0 C0 8.91 0 17.82 0 27 C6.45315851 23.90874943 6.45315851 23.90874943 9 18 C9.59179593 13.16699987 8.45497531 11.05604616 6 7 C6.1875 4.75 6.1875 4.75 7 3 C7.66 2.67 8.32 2.34 9 2 C12.90178666 5.25148888 14.10225189 8.02157866 15 13 C15.09463513 19.03561801 14.02528598 23.32196494 10 28 C6.2006483 31.60938411 3.15381391 32.30931409 -1.9375 32.5 C-7.48799563 32.30029234 -10.63761543 31.43421764 -15 28 C-18.70733216 23.79835689 -19.2654078 18.44915398 -19 13 C-17.73097192 8.36011607 -15.75381908 5.62550945 -12.0625 2.5625 C-7.77438188 0.37468464 -4.79411027 0 0 0 Z M-12 9 C-14.39901788 12.76758512 -14.14602048 15.58394824 -13.5390625 19.875 C-12.76487203 22.92688127 -11.6031281 24.26458127 -9 26 C-7.34172975 26.3728655 -5.67502413 26.71158525 -4 27 C-3.97104024 23.87501937 -3.95321517 20.7500731 -3.9375 17.625 C-3.92493164 16.29082031 -3.92493164 16.29082031 -3.91210938 14.9296875 C-3.90888672 14.07890625 -3.90566406 13.228125 -3.90234375 12.3515625 C-3.89710693 11.56604004 -3.89187012 10.78051758 -3.88647461 9.97119141 C-3.87426047 7.92227332 -3.87426047 7.92227332 -5 6 C-7.98687233 6 -9.58576796 7.31003757 -12 9 Z " fill="#000000" transform="translate(87,234)"/>
<path d="M0 0 C1.32 0.66 2.64 1.32 4 2 C4 2.99 4 3.98 4 5 C5.03125 5.350625 6.0625 5.70125 7.125 6.0625 C11.59805207 7.98991268 14.4001819 10.92202445 17 15 C18.2786766 18.76081352 18.40002485 20.1618527 16.6875 23.75 C14.07856755 27.2285766 13.53480394 27.90662153 9.0625 28.6875 C2.14682815 28.62013956 -2.15895018 23.37763308 -7 19 C-7.66 18.67 -8.32 18.34 -9 18 C-10.23719245 23.56714804 -10.23719245 23.56714804 -8.625 28.8125 C-5.08081756 31.76598537 -1.41531397 32.83956492 3 34 C2.67 35.65 2.34 37.3 2 39 C-5.44331669 38.15573491 -9.92479928 35.48950282 -15 30 C-16.76892849 26.46214302 -16.64225951 22.85355707 -16 19 C-13.28109923 13.71756422 -8.77637507 9.6321093 -4.546875 5.54296875 C-2.82496838 3.82541038 -1.3673709 2.01083956 0 0 Z M-2.875 11.5 C-3.24625 11.995 -3.6175 12.49 -4 13 C-2.63981009 16.11963955 -1.16739866 18.00834822 1.4375 20.1875 C2.03433594 20.69667969 2.63117188 21.20585937 3.24609375 21.73046875 C5.08459819 23.19491807 5.08459819 23.19491807 8 24 C9.65 22.35 11.3 20.7 13 19 C11.07980265 14.45216418 9.62998003 11.93813117 5 10 C0.7206629 9.45839598 0.7206629 9.45839598 -2.875 11.5 Z " fill="#000000" transform="translate(139,350)"/>
<path d="M0 0 C7.51711711 0.51842187 11.33889979 2.4545998 16.875 7.75 C19.16825226 11.25732699 19.71402639 12.99227531 19.40625 17.0703125 C17.61987441 25.55559657 7.91647097 33.16420818 2 39 C1.01 38.34 0.02 37.68 -1 37 C-1 36.01 -1 35.02 -1 34 C-1.77923828 33.65388672 -1.77923828 33.65388672 -2.57421875 33.30078125 C-12.67417228 28.57751278 -12.67417228 28.57751278 -14.69921875 23.11328125 C-15.55153896 19.00806922 -15.15457131 17.28853312 -13.125 13.5 C-10.85629569 11.23754556 -8.99367412 10.45272309 -5.8125 10.125 C0.50583003 10.49604287 4.50168993 14.97788154 9 19 C9.66 19.33 10.32 19.66 11 20 C12.46985575 17.66552322 13.00714985 16.28599403 12.9375 13.5 C11.65029661 10.06745763 10.08813045 8.94686485 7 7 C4.67445049 6.14777999 2.41975587 5.56935432 0 5 C0 3.35 0 1.7 0 0 Z M-8.25 16.9375 C-9.11625 17.9584375 -9.11625 17.9584375 -10 19 C-9.11586343 22.89020092 -8.30346248 24.72476659 -5.3125 27.4375 C-1.24819102 29.35462688 0.72611423 29.29022967 5 28 C6.70687021 26.00958633 6.70687021 26.00958633 8 24 C6.42353449 22.67925885 4.83854469 21.36868776 3.25 20.0625 C2.36828125 19.33160156 1.4865625 18.60070312 0.578125 17.84765625 C-3.86273604 14.58810166 -3.86273604 14.58810166 -8.25 16.9375 Z " fill="#000000" transform="translate(354,105)"/>
<path d="M0 0 C1.65 0.33 3.3 0.66 5 1 C5.33 1.99 5.66 2.98 6 4 C7.546875 3.9071875 7.546875 3.9071875 9.125 3.8125 C14.27313862 4.06160348 17.19800143 5.76705361 21.375 8.625 C23.86047606 12.25761886 23.77602665 15.73577274 23 20 C21.13376161 22.76479762 19.92720644 23.70394461 16.7734375 24.7109375 C13.20009327 25.08337056 10.71296514 24.24944115 7.3125 23.125 C6.17425781 22.75632812 5.03601563 22.38765625 3.86328125 22.0078125 C1 21 1 21 -1 20 C-1.85650653 22.80045046 -1.85650653 22.80045046 -2 26 C0.42073164 29.08851967 2.46016146 30.79552964 6.3828125 31.31640625 C7.28773438 31.39761719 8.19265625 31.47882813 9.125 31.5625 C10.03507812 31.64628906 10.94515625 31.73007812 11.8828125 31.81640625 C12.58148438 31.87699219 13.28015625 31.93757813 14 32 C14.5625 33.9375 14.5625 33.9375 15 36 C13.39673958 37.60326042 11.71699591 37.24749549 9.5 37.3125 C3.09218335 37.24814603 -2.09783345 35.37449991 -7.0625 31.3125 C-9.75485565 24.67135605 -7.75042724 18.37659179 -5.15625 12.09960938 C-4.7746875 11.22111328 -4.393125 10.34261719 -4 9.4375 C-3.6184375 8.52419922 -3.236875 7.61089844 -2.84375 6.66992188 C-1.90984573 4.44022544 -0.96191781 2.21771941 0 0 Z M1 12 C0.67 12.99 0.34 13.98 0 15 C5.39459439 18.08467498 9.79011871 19.55643705 16 20 C18.22534695 17.26290478 18.22534695 17.26290478 18 14.5625 C16.55184448 10.85160148 14.47789714 9.8058312 11 8 C6.39849154 7.10214469 4.26477534 8.82591287 1 12 Z " fill="#000000" transform="translate(181,382)"/>
<path d="M0 0 C3.5625 1.8125 3.5625 1.8125 6 4 C6.86625 4.680625 6.86625 4.680625 7.75 5.375 C11.07748839 9.7007349 11.54566493 14.72523903 11 20 C9.07915854 25.81709374 6.50741772 29.07052249 1 32 C-3.79123248 33.59707749 -8.51139363 34.03584479 -13.26171875 32.05859375 C-17.28170508 29.68821364 -20.27650745 27.46080424 -22 23 C-23.32875744 17.54895569 -23.33058309 12.98117883 -21.09375 7.79296875 C-16.16631188 -0.28451017 -8.67177323 -0.83883819 0 0 Z M-14 7 C-17.05855433 10.4532065 -17.473853 13.61404797 -17.2890625 18.07421875 C-16.72373551 21.8405188 -14.83716924 24.10081822 -12.3125 26.8125 C-8.89127695 28.56934427 -5.7048151 28.78220664 -2 28 C1.0190434 26.24700706 3.41511201 24.16977599 5 21 C5.56183064 16.3948308 5.36702296 12.84109428 3.5 8.5625 C-1.86395528 3.06444584 -7.47532549 3.03402137 -14 7 Z " fill="#000000" transform="translate(242,68)"/>
<path d="M0 0 C5.74598972 3.13067981 11.01662882 6.72547516 16.3125 10.5625 C17.12267578 11.13935547 17.93285156 11.71621094 18.76757812 12.31054688 C19.54166016 12.86935547 20.31574219 13.42816406 21.11328125 14.00390625 C21.81235596 14.50736572 22.51143066 15.0108252 23.23168945 15.52954102 C25 17 25 17 27 20 C26.34 20.99 25.68 21.98 25 23 C23.68 22.67 22.36 22.34 21 22 C20.91363281 22.58007812 20.82726562 23.16015625 20.73828125 23.7578125 C19.68818983 29.59593543 18.26161955 32.83984758 14 37 C10.27010984 39.27584085 7.67066375 39.2478545 3.43408203 38.65478516 C-1.00761146 37.45993842 -4.40933396 34.89935945 -8.0625 32.1875 C-8.83271484 31.65318359 -9.60292969 31.11886719 -10.39648438 30.56835938 C-14.55759631 27.56659895 -14.55759631 27.56659895 -16 26 C-16 22 -16 22 -14 20 C-13.52578613 20.32798584 -13.05157227 20.65597168 -12.56298828 20.99389648 C-10.41790666 22.47642594 -8.27147214 23.9569846 -6.125 25.4375 C-5.37863281 25.95376953 -4.63226563 26.47003906 -3.86328125 27.00195312 C-3.14785156 27.49501953 -2.43242187 27.98808594 -1.6953125 28.49609375 C-1.03547363 28.95169678 -0.37563477 29.4072998 0.30419922 29.87670898 C3.67700932 32.11084363 5.94306957 32.40569304 10 32 C13.20829293 29.39868141 14.77184565 27.40151958 15.4375 23.3125 C14.65170016 17.36287265 10.73518742 14.35435068 6.15234375 10.77734375 C3.46180919 8.80891395 0.75014548 6.88399646 -2 5 C-1.125 1.125 -1.125 1.125 0 0 Z " fill="#000000" transform="translate(379,324)"/>
<path d="M0 0 C11.020633 -0.20535341 21.99852423 0.41869661 33 1 C33 2.98 33 4.96 33 7 C32.01 7 31.02 7 30 7 C30.515625 7.94875 31.03125 8.8975 31.5625 9.875 C33.58264424 14.64022063 33.35068952 19.05289623 32 24 C30.0057857 27.55802263 27.94871106 29.68376298 24 31 C21.07336916 31.09755436 18.17600502 31.13911256 15.25 31.125 C14.46367187 31.12886719 13.67734375 31.13273437 12.8671875 31.13671875 C8.14085953 31.12886771 3.66113097 30.78516377 -1 30 C-1 28.35 -1 26.7 -1 25 C-0.35973877 25.01571045 0.28052246 25.0314209 0.94018555 25.04760742 C3.85586631 25.11017115 6.77140555 25.14905808 9.6875 25.1875 C10.69490234 25.21263672 11.70230469 25.23777344 12.74023438 25.26367188 C19.94267579 25.48978103 19.94267579 25.48978103 26 22 C27.14288494 19.3735625 27.19433499 16.84284326 27 14 C25.7850505 11.05854332 24.9131294 9.54989153 22.18457031 7.90673828 C19.79171284 6.91354733 17.81099266 6.59842242 15.234375 6.3671875 C14.34492188 6.28339844 13.45546875 6.19960937 12.5390625 6.11328125 C11.61867188 6.03464844 10.69828125 5.95601562 9.75 5.875 C8.81414062 5.78863281 7.87828125 5.70226562 6.9140625 5.61328125 C4.60992647 5.40167692 2.30537956 5.19751323 0 5 C0 3.35 0 1.7 0 0 Z " fill="#000000" transform="translate(399,241)"/>
<path d="M0 0 C0.87462891 0.19078125 1.74925781 0.3815625 2.65039062 0.578125 C4.78926873 1.04563934 6.92645935 1.51971817 9.0625 2 C8.7325 3.98 8.4025 5.96 8.0625 8 C6.61230469 7.67515625 6.61230469 7.67515625 5.1328125 7.34375 C-5.8273313 4.67589061 -5.8273313 4.67589061 -16.9375 5 C-19.59521762 7.04020692 -19.9214735 7.9346612 -20.75 11.3125 C-20.95463337 15.33695632 -20.77354069 17.41924001 -18.9375 21 C-16.21728744 22.09671084 -14.08122241 22.72919804 -11.25 23.25 C-9.85003741 23.54582157 -8.45029543 23.84268921 -7.05078125 24.140625 C-6.36838379 24.27791016 -5.68598633 24.41519531 -4.98291016 24.55664062 C-1.91930849 25.22070133 1.0596708 26.10269324 4.0625 27 C3.7325 28.65 3.4025 30.3 3.0625 32 C-3.72445435 31.29030646 -10.28173721 29.92442573 -16.9375 28.4375 C-17.99839844 28.20353516 -19.05929688 27.96957031 -20.15234375 27.72851562 C-22.74812894 27.15557205 -25.34313354 26.57932765 -27.9375 26 C-28.2675 24.35 -28.5975 22.7 -28.9375 21 C-27.6175 20.67 -26.2975 20.34 -24.9375 20 C-25.2675 19.34 -25.5975 18.68 -25.9375 18 C-26.46407873 12.71694786 -26.57941122 8.33137143 -24.25 3.5 C-17.07546454 -4.25625456 -9.39529088 -2.11483354 0 0 Z " fill="#000000" transform="translate(98.9375,199)"/>
<path d="M0 0 C0.33 1.65 0.66 3.3 1 5 C0.0925 5.53625 -0.815 6.0725 -1.75 6.625 C-5.12348281 8.88467257 -7.10861054 11.36853223 -9 15 C-8.88556744 17.31026274 -8.88556744 17.31026274 -8 19 C-3.40277715 18.88506943 -1.31790808 17.58563647 1.875 14.5 C4.56897532 12.00691386 6.54512896 10.43594558 10.1875 9.75 C14 10 14 10 17 11.9375 C19.02477084 15.03793034 19.79762435 17.08869548 19.55078125 20.8125 C18.16029955 26.33498052 14.45850089 31.21957076 9.9375 34.625 C6.67261315 36.15324491 5.35096654 36.18269407 2 35 C2.125 33.25 2.125 33.25 3 31 C4.97946592 29.63636792 6.9819245 28.30581356 9 27 C11.63191007 24.29882914 12.91376919 22.97009657 13.25 19.1875 C13.1675 18.465625 13.085 17.74375 13 17 C9.67677284 16.6222264 8.3532305 16.74184786 5.60546875 18.75 C4.80753906 19.4925 4.00960937 20.235 3.1875 21 C-2.28159684 25.59697558 -2.28159684 25.59697558 -6.375 25.75 C-10.37035556 24.92337471 -11.73278884 24.35547252 -14 21 C-15.63245548 17.08210686 -14.80172121 13.94541858 -13.2265625 10.06640625 C-10.69624764 5.80355096 -5.28361933 0 0 0 Z " fill="#000000" transform="translate(118,129)"/>
<path d="M0 0 C2.83842501 0.08348309 4.54049314 0.5723728 6.6328125 2.51953125 C10.97737208 7.50423125 12.31814061 11.10822467 12.2109375 17.72265625 C11.75631992 22.63084233 9.56756125 25.69721516 5.9375 28.8125 C0.52762587 32.84112967 -4.37784949 32.74520364 -11 32 C-15.19759122 30.30341261 -17.42901364 27.87551242 -19.875 24.125 C-22.0299584 18.13900443 -22.48167012 13.92843416 -20 8 C-19.67 7.34 -19.34 6.68 -19 6 C-16.525 6.99 -16.525 6.99 -14 8 C-14.17917969 8.58007812 -14.35835938 9.16015625 -14.54296875 9.7578125 C-15.66396175 13.87491407 -16.25342384 16.23972847 -14.875 20.375 C-12.99372825 23.00878045 -11.88755635 24.55622182 -9 26 C-3.80692305 26.57700855 -0.38415593 25.85479921 4 23 C6.63112918 19.65129014 6.36141398 16.12011936 6 12 C4.63035715 8.9183036 3.70715882 7.42429529 0.8125 5.6875 C0.214375 5.460625 -0.38375 5.23375 -1 5 C-0.67 3.35 -0.34 1.7 0 0 Z " fill="#000000" transform="translate(97,282)"/>
<path d="M0 0 C2.9375 1.5 2.9375 1.5 5 3 C4.01 4.32 3.02 5.64 2 7 C1.34 6.67 0.68 6.34 0 6 C-1.99960012 5.960008 -4.00047242 5.95653201 -6 6 C-6.66 8.31 -7.32 10.62 -8 13 C-4.7 13.33 -1.4 13.66 2 14 C1.67 15.32 1.34 16.64 1 18 C-1.97 18.33 -4.94 18.66 -8 19 C-8.08302368 20.01368652 -8.08302368 20.01368652 -8.16772461 21.04785156 C-8.42090531 24.11552698 -8.6791479 27.18275596 -8.9375 30.25 C-9.06801758 31.84521484 -9.06801758 31.84521484 -9.20117188 33.47265625 C-9.28818359 34.49746094 -9.37519531 35.52226563 -9.46484375 36.578125 C-9.543396 37.52075195 -9.62194824 38.46337891 -9.70288086 39.43457031 C-9.96612311 41.70749522 -10.38231108 43.80075595 -11 46 C-12.65 45.67 -14.3 45.34 -16 45 C-15.03644647 26.17995444 -15.03644647 26.17995444 -14 17 C-15.65 17 -17.3 17 -19 17 C-19 15.35 -19 13.7 -19 12 C-17.35 12 -15.7 12 -14 12 C-13.773125 10.7625 -13.54625 9.525 -13.3125 8.25 C-12.52265654 5.15644645 -11.98551072 3.98344082 -9.8125 1.5 C-6.22082686 -0.41555901 -4.02364196 -0.50295525 0 0 Z " fill="#000000" transform="translate(275,55)"/>
<path d="M0 0 C4.55618095 0.17867376 6.51909527 0.56002333 9.9375 3.6875 C12.29837546 7.47920907 12.58283567 8.63646925 12 13 C10.58204804 15.89997353 8.81667766 18.52385775 7 21.1875 C6.05658149 22.59370354 5.11880596 24.00371413 4.1875 25.41796875 C3.76855469 26.03438232 3.34960938 26.6507959 2.91796875 27.28588867 C1.76395027 29.11669943 1.76395027 29.11669943 2 32 C3.43750191 33.68798827 3.43750191 33.68798827 5 35 C4.34 35.99 3.68 36.98 3 38 C2.0925 37.7525 1.185 37.505 0.25 37.25 C-3.08837848 36.61740673 -3.08837848 36.61740673 -5.375 38.9375 C-5.91125 39.618125 -6.4475 40.29875 -7 41 C-7.99 40.34 -8.98 39.68 -10 39 C-9.42415568 36.61435923 -8.77772405 34.33317216 -8 32 C-11.465 30.02 -11.465 30.02 -15 28 C-14.34 26.35 -13.68 24.7 -13 23 C-8.545 24.98 -8.545 24.98 -4 27 C-2.26850051 24.45068155 -0.56558425 21.88873515 1.125 19.3125 C1.61871094 18.59126953 2.11242187 17.87003906 2.62109375 17.12695312 C5.4986432 12.92544733 5.4986432 12.92544733 5.46875 8.03125 C4.13074141 5.75240567 4.13074141 5.75240567 1.375 5.1875 C0.59125 5.125625 -0.1925 5.06375 -1 5 C-0.67 3.35 -0.34 1.7 0 0 Z " fill="#000000" transform="translate(160,370)"/>
<path d="M0 0 C1.32 0.66 2.64 1.32 4 2 C2.55140574 5.38005327 0.62669829 7.4587228 -2 10 C-1.48050781 10.50789063 -0.96101562 11.01578125 -0.42578125 11.5390625 C2.81667193 14.73956158 5.95884828 17.84430635 8.6875 21.5 C10.75803119 24.18819699 10.75803119 24.18819699 13.625 24.6875 C16.25247512 24.19052484 16.25247512 24.19052484 17.8125 21.5 C18.204375 20.675 18.59625 19.85 19 19 C20.32 19.33 21.64 19.66 23 20 C22.74919159 23.67852334 22.38558753 25.55599012 19.9375 28.375 C16.21372285 30.43496183 13.11286245 30.91848509 9 30 C4.39574892 26.99314215 1.16966396 23.0158081 -2.2890625 18.76953125 C-4.10464176 16.89177461 -5.552719 15.89667583 -8 15 C-10.23470405 15.78309467 -10.23470405 15.78309467 -12 17 C-12.66 15.68 -13.32 14.36 -14 13 C-13.01 11.68 -12.02 10.36 -11 9 C-11.7425 8.3503125 -11.7425 8.3503125 -12.5 7.6875 C-14 6 -14 6 -14 3 C-12.68 2.34 -11.36 1.68 -10 1 C-8.5 2.375 -8.5 2.375 -7 4 C-7 4.66 -7 5.32 -7 6 C-4.69 4.02 -2.38 2.04 0 0 Z " fill="#000000" transform="translate(132,110)"/>
<path d="M0 0 C1.65 0 3.3 0 5 0 C4.67 2.64 4.34 5.28 4 8 C6.97 8.33 9.94 8.66 13 9 C12.67 10.65 12.34 12.3 12 14 C9.03 13.67 6.06 13.34 3 13 C2.49078672 15.18537367 1.99305563 17.37342431 1.5 19.5625 C1.2215625 20.78066406 0.943125 21.99882813 0.65625 23.25390625 C0.01120573 26.93603394 -0.1881075 30.27076878 0 34 C1.96822886 35.96822886 5.34808709 35.66248381 8 36 C8.33 37.32 8.66 38.64 9 40 C5.93570224 41.53214888 3.3834358 41.22938548 0 41 C-3.5386994 39.34860695 -4.81070153 38.28394771 -7 35 C-7.11968861 28.91582912 -5.90630276 22.84578085 -4.40234375 16.97265625 C-3.86676935 14.68232666 -3.86676935 14.68232666 -4 11 C-5.32 10.67 -6.64 10.34 -8 10 C-7.67 8.35 -7.34 6.7 -7 5 C-4.03 5.495 -4.03 5.495 -1 6 C-0.67 4.02 -0.34 2.04 0 0 Z " fill="#000000" transform="translate(285,64)"/>
<path d="M0 0 C1.32 0.66 2.64 1.32 4 2 C3.34 4.97 2.68 7.94 2 11 C4.55575038 12.20429601 7.11791464 13.38840747 9.6875 14.5625 C10.40873047 14.90474609 11.12996094 15.24699219 11.87304688 15.59960938 C15.08066068 17.04962658 17.34928569 18.01399386 20.90625 17.9375 C23.43463448 17.06853016 23.43463448 17.06853016 24.8125 13.4375 C25.204375 12.303125 25.59625 11.16875 26 10 C26.99 10 27.98 10 29 10 C29.66964286 17.76785714 29.66964286 17.76785714 27 21.5 C23.77468539 24.18776218 22.37413054 24.46932309 18.2734375 24.33789062 C14.02688737 23.70674529 10.33853102 21.85049704 6.5 20 C5.67757812 19.6184375 4.85515625 19.236875 4.0078125 18.84375 C1.99846347 17.90916905 -0.0033187 16.96127038 -2 16 C-2.99 18.475 -2.99 18.475 -4 21 C-5.32 20.67 -6.64 20.34 -8 20 C-7.67 18.02 -7.34 16.04 -7 14 C-9.475 13.01 -9.475 13.01 -12 12 C-11.67 10.35 -11.34 8.7 -11 7 C-8.69 7.33 -6.38 7.66 -4 8 C-2.68 5.36 -1.36 2.72 0 0 Z " fill="#000000" transform="translate(87,168)"/>
<path d="M0 0 C1.5 1.25 1.5 1.25 3 3 C3 4.32 3 5.64 3 7 C3.94875 7.4125 4.8975 7.825 5.875 8.25 C9.00716624 10.0040131 9.86500606 10.70851757 11 14 C10.34 14.66 9.68 15.32 9 16 C6.30825243 15.72154335 4.82881381 14.88587587 2.5625 13.375 C0.12643465 11.79543099 0.12643465 11.79543099 -2.4375 12.0625 C-8.76281042 14.37663796 -13.71244388 19.14305947 -18.828125 23.390625 C-21 25 -21 25 -23 25 C-23.66 23.35 -24.32 21.7 -25 20 C-22.38961253 17.86422843 -19.77910863 15.72860175 -17.16796875 13.59375 C-15.08414651 11.88909714 -13.00417114 10.18005451 -10.92578125 8.46875 C-9.96027344 7.6746875 -8.99476563 6.880625 -8 6.0625 C-7.113125 5.33160156 -6.22625 4.60070312 -5.3125 3.84765625 C-3 2 -3 2 0 0 Z " fill="#000000" transform="translate(386,128)"/>
<path d="M0 0 C2.0246582 0.92895508 2.0246582 0.92895508 3.32080078 3.45751953 C3.86450317 5.10820435 3.86450317 5.10820435 4.41918945 6.79223633 C4.81686523 7.98913086 5.21454102 9.18602539 5.62426758 10.41918945 C5.8230249 11.04656006 6.02178223 11.67393066 6.2265625 12.3203125 C6.8334222 14.22970035 7.47096545 16.12924654 8.10864258 18.02856445 C11.4281106 28.21665165 11.4281106 28.21665165 10.0246582 31.92895508 C8.7046582 31.92895508 7.3846582 31.92895508 6.0246582 31.92895508 C5.6946582 31.26895508 5.3646582 30.60895508 5.0246582 29.92895508 C4.3027832 30.73333008 3.5809082 31.53770508 2.8371582 32.36645508 C-0.00049869 34.9518758 -1.24700327 35.6093832 -4.9753418 35.92895508 C-5.3053418 34.27895508 -5.6353418 32.62895508 -5.9753418 30.92895508 C-5.0059668 30.31020508 -4.0365918 29.69145508 -3.0378418 29.05395508 C0.05301182 27.27216662 0.05301182 27.27216662 1.0246582 24.92895508 C1.09017349 18.23329271 -0.64618281 12.43345863 -3.13549805 6.27661133 C-3.9753418 3.92895508 -3.9753418 3.92895508 -3.9753418 0.92895508 C-1.9753418 -0.07104492 -1.9753418 -0.07104492 0 0 Z " fill="#000000" transform="translate(302.975341796875,388.071044921875)"/>
<path d="M0 0 C4.15116435 1.29757537 7.95590318 2.85943494 11.8359375 4.8203125 C13.43115234 5.62275391 13.43115234 5.62275391 15.05859375 6.44140625 C16.70021484 7.27478516 16.70021484 7.27478516 18.375 8.125 C19.49261719 8.68832031 20.61023438 9.25164062 21.76171875 9.83203125 C24.5096609 11.21774567 27.2556598 12.60716947 30 14 C29.34 15.65 28.68 17.3 28 19 C23.99774683 18.38353163 20.86463695 17.10770326 17.26171875 15.27734375 C15.66166992 14.47006836 15.66166992 14.47006836 14.02929688 13.64648438 C12.92650391 13.08251953 11.82371094 12.51855469 10.6875 11.9375 C9.56537109 11.36966797 8.44324219 10.80183594 7.28710938 10.21679688 C4.52195592 8.81657023 1.75976284 7.41081335 -1 6 C-0.67 4.02 -0.34 2.04 0 0 Z " fill="#000000" transform="translate(384,312)"/>
<path d="M0 0 C4.27527531 1.28534083 7.82337798 2.91332347 11.6171875 5.2578125 C12.63554688 5.88300781 13.65390625 6.50820312 14.703125 7.15234375 C16.27320313 8.12880859 16.27320313 8.12880859 17.875 9.125 C18.94492188 9.78371094 20.01484375 10.44242188 21.1171875 11.12109375 C23.74819964 12.74198516 26.37561007 14.36841634 29 16 C28.01 18.475 28.01 18.475 27 21 C23.17877607 19.57885846 19.77377795 17.80810468 16.26171875 15.7421875 C15.19501953 15.11699219 14.12832031 14.49179688 13.02929688 13.84765625 C11.92650391 13.19667969 10.82371094 12.54570312 9.6875 11.875 C8.00430664 10.88693359 8.00430664 10.88693359 6.28710938 9.87890625 C3.52291344 8.2556763 0.76063368 6.62927846 -2 5 C-1.34 3.35 -0.68 1.7 0 0 Z " fill="#000000" transform="translate(94,155)"/>
<path d="M0 0 C0.495 2.475 0.495 2.475 1 5 C-3.05605327 5.71640174 -7.11286072 6.42835038 -11.17041016 7.13623047 C-12.54985509 7.37752807 -13.9290901 7.62002897 -15.30810547 7.86376953 C-17.29338504 8.21444977 -19.27949708 8.56040683 -21.265625 8.90625 C-22.45961914 9.11572266 -23.65361328 9.32519531 -24.88378906 9.54101562 C-28 10 -28 10 -32 10 C-32 8.35 -32 6.7 -32 5 C-26.32061529 3.51223407 -20.66612628 2.33204954 -14.875 1.375 C-14.10285156 1.2409375 -13.33070312 1.106875 -12.53515625 0.96875 C-8.30558673 0.26262085 -4.30599385 -0.15132886 0 0 Z " fill="#000000" transform="translate(103,271)"/>
<path d="M0 0 C1.2065625 0.0309375 1.2065625 0.0309375 2.4375 0.0625 C2.81883299 2.0539056 3.15075582 4.05529077 3.4375 6.0625 C2.4375 7.0625 2.4375 7.0625 0 7.25 C-2.5625 7.0625 -2.5625 7.0625 -4.5625 5.0625 C-3.80953264 0.09291543 -3.80953264 0.09291543 0 0 Z " fill="#000000" transform="translate(171.5625,114.9375)"/>
<path d="M0 0 C1.67542976 0.28604898 3.34385343 0.61781233 5 1 C5 2.98 5 4.96 5 7 C2.625 7.625 2.625 7.625 0 8 C-0.66 7.34 -1.32 6.68 -2 6 C-1.44444444 1.44444444 -1.44444444 1.44444444 0 0 Z " fill="#000000" transform="translate(267,396)"/>
<path d="M0 0 C1.2065625 0.0309375 1.2065625 0.0309375 2.4375 0.0625 C3.0625 2.4375 3.0625 2.4375 3.4375 5.0625 C2.7775 5.7225 2.1175 6.3825 1.4375 7.0625 C-1.1875 6.6875 -1.1875 6.6875 -3.5625 6.0625 C-3.605221 4.39638095 -3.60313832 2.72867115 -3.5625 1.0625 C-2.5625 0.0625 -2.5625 0.0625 0 0 Z " fill="#000000" transform="translate(421.5625,329.9375)"/>
<path d="M0 0 C2.125 0.9375 2.125 0.9375 4 2 C3.67 3.65 3.34 5.3 3 7 C1.125 7.625 1.125 7.625 -1 8 C-1.66 7.34 -2.32 6.68 -3 6 C-2.75 3.4375 -2.75 3.4375 -2 1 C-1.34 0.67 -0.68 0.34 0 0 Z " fill="#000000" transform="translate(61,276)"/>
<path d="M0 0 C1.2065625 0.0309375 1.2065625 0.0309375 2.4375 0.0625 C3.0625 2.4375 3.0625 2.4375 3.4375 5.0625 C2.7775 5.7225 2.1175 6.3825 1.4375 7.0625 C-1.1875 6.6875 -1.1875 6.6875 -3.5625 6.0625 C-3.605221 4.39638095 -3.60313832 2.72867115 -3.5625 1.0625 C-2.5625 0.0625 -2.5625 0.0625 0 0 Z " fill="#000000" transform="translate(85.5625,148.9375)"/>
</svg>
