<?xml version="1.0" encoding="UTF-8"?>
<svg version="1.1" xmlns="http://www.w3.org/2000/svg" width="1185" height="1192">
<path d="M0 0 C3.48872415 1.16290805 4.09976864 2.13967609 6.1875 5.0625 C6.71730469 5.79597656 7.24710938 6.52945313 7.79296875 7.28515625 C8.19128906 7.85105469 8.58960938 8.41695312 9 9 C7.9790625 10.0209375 7.9790625 10.0209375 6.9375 11.0625 C6.25107422 11.75666016 6.25107422 11.75666016 5.55078125 12.46484375 C4.50614313 13.49895655 3.44020039 14.51193076 2.35546875 15.50390625 C-8.1772349 25.37088596 -15.23876172 39.56678657 -16.203125 54.05078125 C-16.32489632 62.5240354 -15.69385086 68.07467446 -10.8125 75.1875 C-3.54680927 82.45319073 5.31989623 85.21904109 15 88 C15.66 88 16.32 88 17 88 C16.66226562 87.40574219 16.32453125 86.81148437 15.9765625 86.19921875 C9.65045602 74.44289949 8.69224495 62.81692692 11.75390625 49.79296875 C13.86521474 42.91133983 16.91135533 36.91154167 21 31 C21.43957031 30.36320313 21.87914062 29.72640625 22.33203125 29.0703125 C28.94471447 20.49478672 39.52821742 15.09932533 50 13 C64.96171706 11.51758268 79.05546441 14.39283886 91 24 C101.0465858 33.18455426 105.96962822 43.90510392 107.21875 57.35546875 C107.78368717 71.78490572 102.97807742 85.52020101 93.625 96.4375 C89.04325639 101.25142656 84.32952941 104.89015686 78 107 C82.95 108.65 87.9 110.3 93 112 C91.68 116.29 90.36 120.58 89 125 C79.44186573 123.33438953 70.26542545 120.56379134 60.98046875 117.80078125 C60.12326044 117.54657095 59.26605213 117.29236065 58.38286781 117.03044701 C53.84708522 115.68521266 49.31290207 114.33474193 44.7800293 112.97973633 C40.13771195 111.59307537 35.49041692 110.22395816 30.84170055 108.85892963 C27.231057 107.79526046 23.62436622 106.71863825 20.01857948 105.63863182 C18.3086525 105.12883124 16.59732285 104.62370777 14.88451195 104.12368202 C0.29821486 99.85724369 -16.4937124 94.68791853 -24.84765625 80.96484375 C-31.88333186 67.276047 -31.62532661 52.96576792 -27.19921875 38.3984375 C-22.22180236 24.29305554 -14.05326279 7.0266314 0 0 Z M29.5390625 41.78125 C26.92508553 45.54962288 25.37692044 49.64715473 24 54 C23.80664062 54.60972656 23.61328125 55.21945312 23.4140625 55.84765625 C21.55398661 65.51654132 22.23154671 75.9030715 27.44140625 84.33203125 C33.17132476 92.34859937 41.18020222 98.24491059 51 100 C63.10402351 101.07857635 71.79272996 99.74287636 81.25 92 C89.73739959 83.88625951 93.80593437 73.15272158 94.3125 61.5625 C94.02542559 51.85263038 90.18191846 43.00361589 83.18359375 36.24609375 C65.45811516 21.95828373 43.85943026 24.77990015 29.5390625 41.78125 Z " fill="#151515" transform="translate(1028,675)"/>
<path d="M0 0 C2.66826814 0.38786367 5.33705444 0.77209961 8.00585938 1.15625 C14.48494424 2.09164205 20.96195502 3.04042431 27.4375 4 C23.27596548 35.43836352 18.93840739 66.84969636 14.5 98.25 C14.31168421 99.58229519 14.31168421 99.58229519 14.11956406 100.94150543 C12.56167358 111.9614004 11.00094213 122.98089132 9.4375 134 C-2.73049407 132.71030049 -14.8665212 131.24909628 -26.98583984 129.56030273 C-28.78974231 129.3113818 -30.59445053 129.06823315 -32.39990234 128.83081055 C-56.07327948 125.7140936 -77.94547865 119.80901711 -93.4375 100.1875 C-104.40792991 84.78179789 -106.66676735 67.11248299 -104.2578125 48.66699219 C-101.24387222 32.28253621 -92.50649517 17.85647414 -79.26171875 7.81640625 C-54.67217899 -8.73082383 -27.58545788 -4.088513 0 0 Z M-77.6328125 25.625 C-87.85421311 38.20518537 -91.5445719 52.99586541 -90.5625 69 C-88.60349924 82.2813611 -82.21445464 94.26341632 -71.42578125 102.3515625 C-58.73517073 111.06142504 -45.85769659 113.74018469 -30.84204102 115.86523438 C-28.10449562 116.25290367 -25.36962598 116.6563592 -22.63476562 117.0625 C-20.88294492 117.31861572 -19.13099595 117.57385601 -17.37890625 117.828125 C-16.16165611 118.00616669 -16.16165611 118.00616669 -14.91981506 118.18780518 C-14.15809494 118.29501892 -13.39637482 118.40223267 -12.61157227 118.51269531 C-11.94827408 118.60721985 -11.28497589 118.70174438 -10.60157776 118.7991333 C-8.24563035 119.03121439 -5.92831928 119.03206801 -3.5625 119 C-1.87974988 107.36031463 -0.20165144 95.71996877 1.47065639 84.07877827 C2.24747699 78.6722275 3.02584483 73.26590929 3.80786133 67.86010742 C4.56373683 62.63459422 5.3154008 57.40849039 6.06425667 52.18196678 C6.34941502 50.1968688 6.63604164 48.21198111 6.92422295 46.22731972 C8.43318874 35.82847646 9.86059354 25.50009443 10.4375 15 C2.83986729 13.81487954 -4.75949563 12.64200772 -12.36181641 11.48730469 C-14.25514178 11.19904554 -16.14817407 10.90883103 -18.04052734 10.61425781 C-40.01280689 7.20556036 -61.58967096 8.23023848 -77.6328125 25.625 Z " fill="#131313" transform="translate(559.5625,1056)"/>
<path d="M0 0 C3.96 1.98 7.92 3.96 12 6 C11.22606658 22.08605911 9.66390695 38.09471824 8.14996338 54.1239624 C7.58804133 60.07749498 7.03032555 66.03142055 6.47415352 71.98549271 C6.28048455 74.05241742 6.08492304 76.11915671 5.8891449 78.18588257 C5.77224808 79.43213409 5.65535126 80.67838562 5.53491211 81.96240234 C5.43133896 83.05918304 5.32776581 84.15596375 5.22105408 85.28598022 C4.95940994 88.04451519 4.95940994 88.04451519 5 91 C11.41103847 85.23584109 17.68857868 79.38259609 23.75 73.25 C27.03688416 69.92483505 30.29922189 66.64351399 33.875 63.625 C38.6965868 59.54203926 43.04746363 54.97661625 47.48925781 50.49121094 C51.34176129 46.61544121 55.23311485 42.86480101 59.4375 39.3671875 C61.27213542 37.82291667 61.27213542 37.82291667 63.625 35 C66 33 66 33 68.9375 33 C72.15222644 34.04970659 74.99390014 35.46141203 78 37 C77.36805091 53.4486634 75.94262787 69.79867903 74.4375 86.1875 C73.97327318 91.24308594 73.51432877 96.29911103 73.05859375 101.35546875 C72.95236191 102.49308151 72.84613007 103.63069427 72.73667908 104.80278015 C72.18775645 110.89936213 71.89082917 116.87877953 72 123 C72.53367187 122.46109131 73.06734375 121.92218262 73.6171875 121.36694336 C76.07539426 118.88773764 78.53766366 116.41260401 81 113.9375 C81.83917969 113.08994141 82.67835938 112.24238281 83.54296875 111.36914062 C87.26897119 107.62869631 90.99075397 103.94141121 95 100.50390625 C99.93245661 96.27033813 104.44102494 91.62805044 109 87 C114.2709221 81.64921545 119.53239941 76.38047368 125.25976562 71.51538086 C127.98150297 69.14531581 130.48053222 66.58245448 133 64 C137.23429756 65.31061591 141.07407404 66.94356259 145 69 C143.65049709 72.04860081 142.18607491 74.01123919 139.7265625 76.25 C139.07236328 76.85263672 138.41816406 77.45527344 137.74414062 78.07617188 C137.04482422 78.71103516 136.34550781 79.34589844 135.625 80 C130.47977655 84.73841333 125.40680603 89.51463377 120.5 94.5 C117.48735672 97.55316104 114.46471857 100.54054853 111.1875 103.3125 C107.06296016 106.81446779 103.30428725 110.65864747 99.5 114.5 C95.16237152 118.87984898 90.84329779 123.16443736 86.09375 127.1015625 C84.24070545 128.78174842 82.55135386 130.5110862 80.84375 132.3359375 C80.27285645 132.93712402 79.70196289 133.53831055 79.11376953 134.15771484 C77.97431032 135.36501044 76.84955468 136.58639384 75.74169922 137.82275391 C71.80666632 141.96521116 71.80666632 141.96521116 68.1015625 142.125 C65.53257831 141.19317702 63.23491843 140.16105165 60.80615234 138.9296875 C60.0916391 138.56858887 59.37712585 138.20749023 58.64096069 137.83544922 C58.09944366 137.55975098 57.55792664 137.28405273 57 137 C57.11275269 135.55086967 57.11275269 135.55086967 57.2277832 134.07246399 C57.9361657 124.96488086 58.64252538 115.8571428 59.34690857 106.74924946 C59.70909705 102.06688423 60.07199621 97.38457636 60.43652344 92.70239258 C60.78833076 88.18325153 61.13826613 83.66396907 61.48690796 79.14458275 C61.62020304 77.42098009 61.75417081 75.69742932 61.88882446 73.97393227 C62.07740745 71.55868345 62.26359094 69.14326069 62.44921875 66.7277832 C62.50532318 66.01640198 62.56142761 65.30502075 62.61923218 64.57208252 C62.88817887 61.03915948 63.06047262 57.54330409 63 54 C62.2265625 54.78503906 61.453125 55.57007813 60.65625 56.37890625 C55.57512154 61.51240061 50.49721402 66.54386359 44.9921875 71.2265625 C41.65679203 74.19571847 38.57480673 77.41818343 35.4375 80.59375 C32.74716094 83.24959753 29.93426475 85.70135432 27.0625 88.15625 C24.61075311 90.34796313 22.31114427 92.66067104 20 95 C14.31893475 100.74215198 8.36572084 106.0267806 2 111 C-1.63 109.35 -5.26 107.7 -9 106 C-9.27591109 95.235068 -8.23206731 84.61703942 -7.28515625 73.90625 C-7.10788103 71.86652259 -6.93091984 69.82676786 -6.7542572 67.7869873 C-6.38484446 63.53382824 -6.01213795 59.28097486 -5.63696289 55.02832031 C-5.15593247 49.57350696 -4.68247174 44.11806809 -4.21134281 38.66239166 C-3.84777257 34.46036861 -3.48062141 30.25866457 -3.1123333 26.05705261 C-2.93628492 24.04445786 -2.76126817 22.0317726 -2.58729744 20.01899719 C-2.34441937 17.21611148 -2.09681938 14.41368293 -1.84790039 11.61132812 C-1.77668976 10.7791275 -1.70547913 9.94692688 -1.6321106 9.08950806 C-1.34415576 5.89365476 -1.01867798 3.05603395 0 0 Z " fill="#181818" transform="translate(763,59)"/>
<path d="M0 0 C12.02263507 60.89419435 12.02263507 60.89419435 17 88 C15.58461283 88.33872513 14.16762037 88.67074624 12.75 89 C11.96109375 89.185625 11.1721875 89.37125 10.359375 89.5625 C8 90 8 90 4 90 C1.84514401 80.90173897 -0.09899438 71.77635833 -1.91796875 62.60546875 C-2.18255381 61.27880007 -2.44731249 59.95216601 -2.7122345 58.62556458 C-3.39945482 55.18193047 -4.08436171 51.73784046 -4.76873779 48.29364014 C-5.47134321 44.75992713 -6.17620464 41.22666419 -6.88085938 37.69335938 C-8.25607719 30.79600438 -9.62884417 23.89816375 -11 17 C-12.23153809 17.24234375 -13.46307617 17.4846875 -14.73193359 17.734375 C-19.28999355 18.63080229 -23.84853435 19.52476281 -28.40722656 20.41796875 C-30.3822942 20.80531337 -32.35722979 21.19333189 -34.33203125 21.58203125 C-37.16632408 22.13978365 -40.00107889 22.69513141 -42.8359375 23.25 C-43.72243988 23.42499023 -44.60894226 23.59998047 -45.52230835 23.78027344 C-46.34300812 23.94043945 -47.16370789 24.10060547 -48.00927734 24.265625 C-48.73319672 24.40774414 -49.45711609 24.54986328 -50.20297241 24.69628906 C-52 25 -52 25 -54 25 C-53.84966309 25.76785828 -53.69932617 26.53571655 -53.54443359 27.32684326 C-52.12794207 34.56521665 -50.71504762 41.80427848 -49.30618286 49.04413986 C-48.58175545 52.76614537 -47.85594286 56.48786953 -47.12695312 60.20898438 C-46.42342033 63.80042562 -45.72354131 67.39256132 -45.02618408 70.9852066 C-44.75956073 72.35537297 -44.49162442 73.72528452 -44.22235107 75.09493256 C-43.84527434 77.01410519 -43.47330703 78.93427958 -43.1015625 80.85449219 C-42.78179443 82.49330353 -42.78179443 82.49330353 -42.45556641 84.16522217 C-42 87 -42 87 -42 91 C-47.00095883 92.44095424 -49.88731776 93.12915864 -55 92 C-56.56679667 83.95116986 -58.13159272 75.9019545 -59.69381714 67.85223579 C-60.41923814 64.11467631 -61.14535454 60.3772547 -61.87304688 56.64013672 C-62.57493189 53.03541901 -63.27500759 49.43035428 -63.97381592 45.82503891 C-64.24110138 44.44776702 -64.50904493 43.07062268 -64.77764893 41.69360733 C-65.15297312 39.76889339 -65.52576708 37.84368656 -65.8984375 35.91845703 C-66.21820557 34.27298386 -66.21820557 34.27298386 -66.54443359 32.5942688 C-67 30 -67 30 -67 28 C-68.87703613 28.36351562 -68.87703613 28.36351562 -70.79199219 28.734375 C-75.4354824 29.63264133 -80.0798983 30.5260386 -84.72460938 31.41796875 C-86.73463103 31.8046611 -88.74439931 32.19267295 -90.75390625 32.58203125 C-93.64257233 33.14149622 -96.53211676 33.69620767 -99.421875 34.25 C-100.31992859 34.42499023 -101.21798218 34.59998047 -102.14324951 34.78027344 C-102.98381897 34.94043945 -103.82438843 35.10060547 -104.69042969 35.265625 C-105.79629425 35.47880371 -105.79629425 35.47880371 -106.92449951 35.69628906 C-109 36 -109 36 -113 36 C-112.82460693 36.89091843 -112.64921387 37.78183685 -112.46850586 38.69975281 C-110.81559703 47.10019878 -109.16720907 55.50151649 -107.52388 63.90384197 C-106.67889142 68.2234162 -105.83216505 72.54263451 -104.98144531 76.86108398 C-104.16036275 81.02942706 -103.34387381 85.19864603 -102.5305481 89.36850929 C-102.2196053 90.95841263 -101.9070149 92.54799466 -101.59274292 94.13724327 C-101.15250089 96.36499732 -100.71815605 98.59382671 -100.28515625 100.82299805 C-100.03644775 102.09096725 -99.78773926 103.35893646 -99.53149414 104.66532898 C-99.07543739 107.52669489 -98.88697508 110.11333399 -99 113 C-103.1196377 114.29243536 -106.66831683 115.26252625 -111 115 C-112.68719951 110.31362265 -113.77040735 105.61371033 -114.69580078 100.73144531 C-114.85214996 99.92423538 -115.00849915 99.11702545 -115.16958618 98.28535461 C-115.68212139 95.63369064 -116.18882597 92.98095039 -116.6953125 90.328125 C-117.05087615 88.48055305 -117.40674612 86.63304003 -117.76290894 84.7855835 C-118.50672095 80.92279963 -119.24782284 77.05950931 -119.98681641 73.19580078 C-120.93552257 68.23606129 -121.88945299 63.27734499 -122.84520149 58.31895828 C-123.57932855 54.50867729 -124.31148848 50.69802057 -125.04296494 46.88722992 C-125.39420621 45.05784629 -125.74588236 43.22854611 -126.09799576 41.39933014 C-126.58821561 38.85023638 -127.07597425 36.30068448 -127.56298828 33.75097656 C-127.70945801 32.99148209 -127.85592773 32.23198761 -128.00683594 31.44947815 C-129 26.22904613 -129 26.22904613 -129 24 C-85.12719726 15.43945312 -85.12719726 15.43945312 -82.43737221 14.91462708 C-80.64294874 14.56448373 -78.84853426 14.21429431 -77.05412865 13.86405945 C-72.53935711 12.98291949 -68.02443098 12.10258678 -63.50918579 11.22387695 C-55.08686852 9.58397234 -46.66610468 7.9372137 -38.25060749 6.26261139 C-34.45914369 5.50852881 -30.66688228 4.75850314 -26.87455559 4.0087738 C-25.07654258 3.65208965 -23.2789313 3.29337372 -21.4817524 2.93251038 C-18.99655072 2.43361511 -16.51006211 1.9416788 -14.02319336 1.45117188 C-12.9320073 1.2291938 -12.9320073 1.2291938 -11.81877708 1.00273132 C-7.82031392 0.2220246 -4.07241415 -0.14783004 0 0 Z " fill="#151515" transform="translate(1167,445)"/>
<path d="M0 0 C17.1023306 9.70883159 27.16862732 27.19848459 32.72265625 45.62109375 C35.20570174 55.79580575 36.63531181 67.31797047 32.6875 77.1875 C28.7275 77.1875 24.7675 77.1875 20.6875 77.1875 C20.73390625 75.929375 20.7803125 74.67125 20.828125 73.375 C21.34092959 53.59900186 17.59595207 36.71834717 4.8125 21.0625 C-0.55378805 15.51803441 -6.6355117 12.00791967 -14.4375 11.625 C-19.37159371 11.91980434 -23.38425193 13.13925207 -27.3125 16.1875 C-31.68668376 21.68326934 -32.76921323 27.22068809 -32.3125 34.1875 C-30.93548834 42.19856144 -28.69281929 50.06309917 -26.58056641 57.90478516 C-24.07241584 67.26638459 -21.86647995 76.26018347 -21.8125 86 C-21.80629639 86.71051514 -21.80009277 87.42103027 -21.79370117 88.15307617 C-21.98572734 96.03364273 -24.88480667 103.4214218 -30.3125 109.1875 C-37.91030466 115.5967372 -46.775698 118.89444976 -56.7421875 118.53515625 C-68.78497923 116.90626801 -78.36281661 110.10395082 -86.11328125 101.08203125 C-98.00181194 85.43478215 -103.92904047 67.81403843 -103.3125 48.1875 C-100.31769083 47.3151588 -97.67674089 47.07920234 -94.5625 47.125 C-93.76328125 47.13402344 -92.9640625 47.14304687 -92.140625 47.15234375 C-91.53734375 47.16394531 -90.9340625 47.17554688 -90.3125 47.1875 C-90.16554688 48.92773438 -90.16554688 48.92773438 -90.015625 50.703125 C-88.3179016 69.09973471 -83.36560209 85.30748479 -69.3125 98.1875 C-64.56690199 101.56572231 -59.1778646 103.47278038 -53.3125 103.1875 C-47.59153841 101.96774781 -43.41128742 99.28628742 -39.3125 95.1875 C-33.53418053 83.62219049 -38.60240469 69.29757999 -41.75 57.625 C-42.17672136 55.99716107 -42.60186077 54.36890659 -43.02539062 52.74023438 C-43.62027466 50.45311921 -44.21718423 48.16683035 -44.82701111 45.88365173 C-48.02395943 33.89927394 -49.18848144 22.57449509 -43.3125 11.1875 C-34.0487352 -3.28370655 -15.10764384 -6.96250841 0 0 Z " fill="#151515" transform="translate(173.3125,799.8125)"/>
<path d="M0 0 C-0.33 4.29 -0.66 8.58 -1 13 C-2.11117187 12.84144531 -3.22234375 12.68289062 -4.3671875 12.51953125 C-22.13260001 10.32130548 -39.92911087 11.34307678 -55 22 C-60.49464683 27.04833075 -63.94933464 31.75371519 -64.375 39.3125 C-64.22080571 45.48027143 -61.95348142 49.99372178 -57.6875 54.375 C-50.90964123 58.47324019 -44.27757553 58.23561397 -36.58203125 58.08984375 C-34.3352887 58.06941308 -32.08854381 58.04923892 -29.84179688 58.02929688 C-26.33119583 57.98595612 -22.82075489 57.93762718 -19.31030273 57.88354492 C-15.90088468 57.83482866 -12.49167439 57.80524437 -9.08203125 57.77734375 C-8.05036331 57.75558578 -7.01869537 57.73382782 -5.95576477 57.71141052 C4.80934556 57.63930223 15.91535559 59.33159471 24 67 C31.08690063 76.37299761 33.02633367 85.37677119 32 97 C31.12165677 100.64312815 29.81580392 103.72926171 28 107 C27.62230469 107.68449219 27.24460937 108.36898437 26.85546875 109.07421875 C18.44416636 122.0088197 1.65706788 128.22419922 -12.625 131.875 C-26.90610952 134.60139364 -43.88844545 134.96456708 -57 128 C-56.85851011 126.3954444 -56.71164314 124.79136233 -56.5625 123.1875 C-56.44068359 121.84751953 -56.44068359 121.84751953 -56.31640625 120.48046875 C-56 118 -56 118 -55 115 C-54.06542969 115.28875 -53.13085938 115.5775 -52.16796875 115.875 C-32.33665044 121.63107535 -14.07034499 120.08947753 4.4140625 110.5625 C11.12139295 106.50973236 14.25939814 102.27443704 17 95 C17.75448737 89.5299666 16.61127318 84.82243191 14 80 C9.85993633 75.62336126 4.33613058 73.31532858 -1.62203979 72.75216675 C-4.6266051 72.68728405 -7.61648604 72.71484689 -10.62109375 72.77734375 C-11.7204274 72.78633194 -12.81976105 72.79532013 -13.95240784 72.80458069 C-17.44776875 72.8344561 -20.94242341 72.88421184 -24.4375 72.9375 C-27.92895739 72.98550663 -31.42022751 73.02885081 -34.91188049 73.05970764 C-37.07796423 73.07928567 -39.24398943 73.10870575 -41.40977478 73.14964294 C-52.30201299 73.25734492 -60.33998459 70.96429489 -69.625 65.4375 C-77.28871166 57.57211172 -79.30400886 48.69796931 -79.31469727 38.14257812 C-79.12060233 28.00829605 -74.96357471 22.0083086 -68 15 C-67.51144531 14.47664063 -67.02289063 13.95328125 -66.51953125 13.4140625 C-50.4634761 -2.18796538 -20.65320846 -5.96913539 0 0 Z " fill="#161616" transform="translate(462,31)"/>
<path d="M0 0 C11.15133539 10.08696417 18.0066238 22.58279747 19.2109375 37.63671875 C19.72176866 51.40951262 14.94475907 62.21557917 6.3125 72.6875 C-2.20847149 81.82172323 -13.08738171 87.02971496 -25.48046875 88.37890625 C-39.25497171 88.85283476 -51.45175181 84.4816479 -61.875 75.53125 C-68.95502336 68.84456127 -68.95502336 68.84456127 -69.10546875 66.01953125 C-67.48013973 63.05029059 -65.13964747 61.01320508 -62.625 58.8125 C-62.08552734 58.32910156 -61.54605469 57.84570312 -60.99023438 57.34765625 C-56.69763198 53.53200967 -52.25555836 49.91251822 -47.78125 46.3125 C-44.75980812 43.8002899 -41.87558227 41.17599173 -39 38.5 C-35.26670522 35.0258285 -31.47629157 31.69931506 -27.5 28.5 C-23.33656848 25.14376439 -19.32330126 21.66644524 -15.375 18.0625 C-14.85357422 17.58941406 -14.33214844 17.11632812 -13.79492188 16.62890625 C-11.02238407 14.11163781 -11.02238407 14.11163781 -9 11 C-9.83724609 10.58427734 -9.83724609 10.58427734 -10.69140625 10.16015625 C-12.26800475 9.36785548 -13.83811517 8.56254477 -15.40234375 7.74609375 C-16.23894531 7.31425781 -17.07554687 6.88242187 -17.9375 6.4375 C-18.77152344 6.00308594 -19.60554687 5.56867187 -20.46484375 5.12109375 C-29.22998003 1.24498572 -38.03283772 2.74648456 -46.8515625 5.67578125 C-51.65513673 7.69614311 -55.25060147 10.41969199 -59 14 C-59.63679687 14.59683594 -60.27359375 15.19367187 -60.9296875 15.80859375 C-67.84869789 22.95031906 -71.43114015 32.13976262 -72 42 C-73.81293089 41.85962479 -75.6253443 41.71255111 -77.4375 41.5625 C-78.44683594 41.48128906 -79.45617187 41.40007813 -80.49609375 41.31640625 C-83 41 -83 41 -84 40 C-85.44262309 29.01545561 -81.43748361 20.25653447 -75.375 11.3125 C-67.43856571 0.99810787 -55.40046307 -8.14954375 -42.37109375 -10.75 C-26.64198763 -12.40842305 -12.70549102 -10.11908348 0 0 Z M-6.875 25.4375 C-10.61107074 28.88552347 -14.40555293 32.19360492 -18.375 35.375 C-23.16475865 39.2368282 -27.66101419 43.3355783 -32.14379883 47.54272461 C-36.47949701 51.58682749 -40.98432203 55.31558366 -45.66015625 58.96484375 C-48.12495805 61.10868638 -50.03838004 63.39507742 -52 66 C-50.46523218 67.13439361 -48.9218179 68.25709326 -47.375 69.375 C-46.51648438 70.00148438 -45.65796875 70.62796875 -44.7734375 71.2734375 C-37.32854194 75.90814713 -29.52546047 75.72096917 -21 75 C-17.62474884 74.13906637 -14.93465496 72.85803598 -12 71 C-10.97326172 70.36384766 -10.97326172 70.36384766 -9.92578125 69.71484375 C-2.22616446 64.44977246 3.30099579 57.58667535 5.56640625 48.46875 C7.11263001 39.66502554 5.7785041 30.98080015 0.875 23.375 C-0.053125 22.199375 -0.053125 22.199375 -1 21 C-3.14512223 21 -5.45818537 24.11901953 -6.875 25.4375 Z " fill="#181818" transform="translate(960,943)"/>
<path d="M0 0 C9.56547746 8.97773691 16.22110203 19.91589373 17.17578125 33.1875 C17.4884263 48.72102239 13.25659301 60.1316584 2.6875 71.5625 C-1.64178568 75.68516068 -6.68100019 79.26994276 -12.0625 81.875 C-16.07532924 80.53739025 -16.41565399 78.92896924 -18.3984375 75.2421875 C-18.7140564 74.66226044 -19.02967529 74.08233337 -19.3548584 73.48483276 C-20.03527389 72.23215155 -20.71140814 70.9771375 -21.38372803 69.72009277 C-22.44558447 67.73488558 -23.51817347 65.75585804 -24.59423828 63.77832031 C-25.69123792 61.7622626 -26.787684 59.74593413 -27.88082886 57.7277832 C-31.16958484 51.65748267 -34.53424108 45.63187314 -37.9375 39.625 C-38.45965088 38.70243408 -38.98180176 37.77986816 -39.51977539 36.8293457 C-44.27410518 28.45617168 -49.14132592 20.15101511 -54.0625 11.875 C-61.37432277 17.35433121 -65.18489394 23.24218181 -68.0625 31.875 C-69.11935164 44.90447089 -67.25186589 55.63953682 -58.7109375 66.06640625 C-52.54098145 72.835813 -46.89017486 76.2623977 -38.0625 78.875 C-38.84474743 83.2722938 -40.23404259 86.82059445 -42.0625 90.875 C-53.14429331 90.15227435 -61.70098694 83.84377592 -69.0625 75.875 C-78.54976403 63.56370601 -83.76568229 49.13046285 -82.87109375 33.5390625 C-80.96309178 20.16585951 -75.01856197 9.32899321 -64.625 0.640625 C-44.6308049 -13.13586308 -19.55118228 -16.72450532 0 0 Z M-44.0625 4.875 C-38.63089985 16.18126135 -32.61954043 27.09466193 -26.40625 37.98828125 C-23.13185169 43.73278947 -19.92909333 49.51480598 -16.75 55.3125 C-16.2758667 56.17713867 -15.8017334 57.04177734 -15.31323242 57.93261719 C-14.22852773 59.9127984 -13.14483154 61.89352095 -12.0625 63.875 C-6.89246602 62.72016994 -4.31385305 59.99192578 -1.0625 55.875 C3.76476407 47.89952023 6.07726102 39.82004978 4.3046875 30.57421875 C2.39622706 23.62197001 -0.09792087 18.11667192 -5.0625 12.875 C-5.63742187 12.24851562 -6.21234375 11.62203125 -6.8046875 10.9765625 C-12.81659561 5.0644371 -20.67377327 1.85398756 -29.125 1.4375 C-34.29090028 2.01148892 -39.10545112 3.34414667 -44.0625 4.875 Z " fill="#171717" transform="translate(1072.0625,311.125)"/>
<path d="M0 0 C10.63118222 8.33164751 18.17027035 21.59633775 20.4921875 34.953125 C21.6709044 48.37130923 19.9219631 60.64858735 11.5234375 71.609375 C2.67187134 81.82272057 -8.02538679 88.86691444 -21.6328125 90.765625 C-36.06049806 91.70656101 -47.49102281 88.00456744 -58.9609375 79.26953125 C-63.24642833 75.3718379 -66.41936267 70.82617438 -69.5078125 65.953125 C-70.075 65.05980469 -70.6421875 64.16648437 -71.2265625 63.24609375 C-72.5078125 60.953125 -72.5078125 60.953125 -72.5078125 58.953125 C-68.17542948 56.55557014 -63.84202939 54.1598626 -59.5078125 51.765625 C-58.85454987 51.404758 -58.20128723 51.04389099 -57.52822876 50.67208862 C-47.62814251 45.2054462 -37.70153859 39.79070627 -27.74560547 34.42626953 C-21.16115869 30.87145548 -14.6227121 27.24393786 -8.14916992 23.49047852 C-3.72133402 20.953125 -3.72133402 20.953125 -1.5078125 20.953125 C-6.34135989 13.21158975 -12.6595873 8.15736474 -21.5078125 5.578125 C-33.81765593 3.18042457 -44.14029381 6.43151331 -54.671875 12.875 C-62.3853575 18.52730398 -66.608023 25.98667063 -69.5078125 34.953125 C-74.07235501 34.40972708 -77.4806301 33.15848679 -81.5078125 30.953125 C-79.20691954 18.75839232 -72.87005125 9.46330056 -63.0078125 2.08203125 C-43.42889527 -11.15081252 -20.03224774 -13.81934772 0 0 Z M-4.6328125 34.140625 C-5.47376465 34.5833374 -6.3147168 35.0260498 -7.18115234 35.48217773 C-14.88583494 39.56837848 -22.4687069 43.85812857 -30.0456543 48.17529297 C-38.44109607 52.94767853 -46.93859018 57.50173032 -55.5078125 61.953125 C-50.20635545 70.44407654 -43.13718005 75.24563107 -33.5078125 77.953125 C-22.9782449 79.2522275 -14.3519587 77.09953041 -5.7109375 70.96875 C1.43849974 65.0038349 6.02750417 58.23428671 7.4921875 48.953125 C8.08863389 42.02517082 7.09985936 36.37917352 4.4921875 29.953125 C1.61777082 29.953125 -2.05417245 32.78040394 -4.6328125 34.140625 Z " fill="#171717" transform="translate(868.5078125,1003.046875)"/>
<path d="M0 0 C0.9017244 0.00204437 1.80344879 0.00408875 2.73249817 0.00619507 C3.42042953 0.00882355 4.1083609 0.01145203 4.81713867 0.01416016 C5.50443119 27.35231664 5.98569275 54.6669098 5.81713867 82.01416016 C7.71765213 81.41129081 9.61559668 80.80032001 11.51245117 80.18603516 C12.56964355 79.84668945 13.62683594 79.50734375 14.71606445 79.15771484 C23.82675391 75.79804948 29.52686339 70.11295701 34.07104492 61.68994141 C38.43125048 51.76933435 38.59034651 39.06753028 35.12963867 28.82666016 C32.72072327 23.27419558 29.93625961 18.42690745 24.81713867 15.01416016 C24.81713867 14.35416016 24.81713867 13.69416016 24.81713867 13.01416016 C26.56713867 11.28759766 26.56713867 11.28759766 28.81713867 9.38916016 C29.55963867 8.75751953 30.30213867 8.12587891 31.06713867 7.47509766 C31.64463867 6.99298828 32.22213867 6.51087891 32.81713867 6.01416016 C40.58778328 9.43188349 44.68540859 16.75736779 47.81713867 24.31884766 C53.04100612 38.39880289 52.41738333 55.03733875 46.63354492 68.83837891 C40.41520378 81.46883386 30.6519857 88.9606186 17.81713867 94.01416016 C12.22831329 95.82952425 6.92412191 96.37102644 1.06713867 96.32666016 C-0.11247437 96.31820068 -0.11247437 96.31820068 -1.31591797 96.30957031 C-14.55436379 96.03599834 -26.09756033 92.02143857 -35.93286133 82.95166016 C-46.50412151 71.69715874 -49.91800782 59.08403878 -49.49536133 44.08447266 C-48.80189718 31.81593617 -43.35525407 20.75838325 -34.62036133 12.26416016 C-24.63534744 3.79339012 -12.95879232 -0.03809285 0 0 Z M-27.17504883 22.96728516 C-34.05796452 29.98410971 -37.08829285 38.32795726 -37.43286133 48.01416016 C-37.11177532 57.53341586 -34.0988705 64.44548279 -27.93286133 71.63916016 C-22.33151947 76.47668267 -17.91217266 79.82096184 -10.50366211 81.09741211 C-9.01106369 81.35782036 -9.01106369 81.35782036 -7.48831177 81.62348938 C-6.3471138 81.81687141 -6.3471138 81.81687141 -5.18286133 82.01416016 C-5.15731496 74.4193596 -5.1399127 66.82457029 -5.12792969 59.22973633 C-5.12292924 56.65095607 -5.11612672 54.07217861 -5.10742188 51.4934082 C-5.09516713 47.76724555 -5.08958998 44.04112068 -5.08520508 40.31494141 C-5.08004379 39.17898026 -5.07488251 38.0430191 -5.06956482 36.87263489 C-5.06903876 29.21026154 -5.4914084 21.64474087 -6.18286133 14.01416016 C-13.94349409 14.01416016 -21.34950176 18.08134246 -27.17504883 22.96728516 Z " fill="#151515" transform="translate(85.182861328125,553.98583984375)"/>
<path d="M0 0 C2.4976285 1.11058672 3.9228463 2.49051051 5.796875 4.47265625 C6.41046875 5.11332031 7.0240625 5.75398437 7.65625 6.4140625 C8.11515625 6.90777344 8.5740625 7.40148437 9.046875 7.91015625 C8.06868476 9.22338413 7.0892939 10.53571777 6.109375 11.84765625 C5.29146484 12.94400391 5.29146484 12.94400391 4.45703125 14.0625 C3.046875 15.91015625 3.046875 15.91015625 2.046875 16.91015625 C2.95308594 17.008125 3.85929687 17.10609375 4.79296875 17.20703125 C18.80673381 18.92723945 28.39890649 23.50050602 38.046875 33.91015625 C38.54058594 34.4103125 39.03429687 34.91046875 39.54296875 35.42578125 C46.75794204 43.12655074 48.76216972 51.19026909 48.43359375 61.63671875 C47.9028879 66.12895614 46.65170914 69.25139251 44.046875 72.91015625 C42.9640625 74.48796875 42.9640625 74.48796875 41.859375 76.09765625 C36.11021826 81.84681299 29.93205449 84.4216383 21.921875 85.22265625 C7.61954308 84.06924239 -2.4204695 74.79338166 -12.36523438 65.40527344 C-15.06286828 62.86525037 -17.78884187 60.35629673 -20.515625 57.84765625 C-21.01618408 57.38270752 -21.51674316 56.91775879 -22.0324707 56.4387207 C-24.26556895 54.37937166 -26.41682198 52.60102493 -28.953125 50.91015625 C-37.11597875 60.59989766 -37.11597875 60.59989766 -39.296875 72.80859375 C-37.85993817 81.59350303 -32.36930953 88.54479012 -25.44140625 93.82421875 C-16.92339981 99.53529297 -8.20528204 103.13640855 2.046875 103.91015625 C1.90602704 105.70222172 1.75903799 107.49380542 1.609375 109.28515625 C1.52816406 110.28289062 1.44695312 111.280625 1.36328125 112.30859375 C1.046875 114.91015625 1.046875 114.91015625 0.046875 116.91015625 C-17.16985733 116.48265274 -32.27770895 107.06293173 -43.953125 94.91015625 C-51.18334408 86.26384907 -54.61156768 78.23170414 -54.30859375 66.90625 C-52.87712199 54.84098805 -44.82347296 46.48321385 -36.953125 37.91015625 C-35.5559971 36.34881369 -34.16016521 34.78631048 -32.765625 33.22265625 C-28.28645152 28.24143881 -23.71064286 23.35350362 -19.13085938 18.46508789 C-14.93607219 13.98153742 -10.80337055 9.45115889 -6.72265625 4.86328125 C-6.13871094 4.21875 -5.55476563 3.57421875 -4.953125 2.91015625 C-4.46199219 2.306875 -3.97085938 1.70359375 -3.46484375 1.08203125 C-1.953125 -0.08984375 -1.953125 -0.08984375 0 0 Z M-17.25390625 36.875 C-18.87494483 38.81651977 -19.93709064 40.60473818 -20.953125 42.91015625 C-20.22609375 43.57660156 -19.4990625 44.24304688 -18.75 44.9296875 C-18.27030762 45.36966064 -17.79061523 45.80963379 -17.29638672 46.26293945 C-16.22091216 47.24826927 -15.14438865 48.23245523 -14.06689453 49.21557617 C-11.29808129 51.74475741 -8.54662596 54.28742589 -5.8359375 56.87890625 C5.21095193 67.46406781 5.21095193 67.46406781 19.359375 72.22265625 C25.02544823 71.74248055 28.2326303 69.01477552 31.859375 64.84765625 C35.12597598 60.4610778 35.56060384 57.30430906 35.046875 51.91015625 C31.43716776 41.82563781 24.57747816 34.66655073 15.046875 29.91015625 C2.59178648 25.01708576 -8.09528057 27.53644061 -17.25390625 36.875 Z " fill="#181818" transform="translate(256.953125,911.08984375)"/>
<path d="M0 0 C18.82295142 0.62053686 34.01244039 8.42002539 47 22 C49.28226358 24.86968164 51.19727051 27.81101318 53 31 C53.61875 32.03125 54.2375 33.0625 54.875 34.125 C57.69270299 41.36329092 57.09355892 51.04566966 54.5 58.25 C50.16266631 67.42512895 43.33764412 74.8999969 36.4921875 82.265625 C33.34494593 85.71871137 30.42977083 89.33043097 27.49609375 92.96484375 C23.9469225 97.28050269 20.27810372 101.48864996 16.60424805 105.69824219 C13.35270078 109.42600346 10.15240931 113.18791985 7 117 C1.99081256 115.52670958 -0.51807722 112.72484762 -4 109 C-2.4707257 105.55913282 -0.37237071 102.90760069 2 100 C1.02160156 99.90203125 0.04320312 99.8040625 -0.96484375 99.703125 C-16.52369261 97.92846771 -28.06124169 92.13059275 -38.58203125 80.20703125 C-45.14848141 71.53772998 -46.1966297 62.6891249 -45 52 C-42.43982154 43.73868338 -35.96597548 38.36433154 -28.75 34.0625 C-18.63250767 31.19587717 -10.10530567 33.00225541 -1 38 C2.21720256 40.10650168 5.09414164 42.48567775 8 45 C9.03018896 45.87234832 10.06151582 46.74335396 11.09375 47.61328125 C12.76659575 49.02472945 14.43786736 50.43781295 16.10400391 51.85717773 C20.98390111 56.01308665 25.96498281 60.03336118 31 64 C36.8476362 59.69535352 40.18970969 54.63821352 41.453125 47.40625 C41.81226355 39.09475788 38.37745802 32.7734337 32.8828125 26.7265625 C23.29106658 17.93081209 11.55452492 14.18339564 -1 12 C-0.67 8.04 -0.34 4.08 0 0 Z M-26.1875 49.25 C-30.01849378 52.99586059 -31.68511283 55.95323338 -32.5 61.25 C-31.35306101 69.8520424 -26.65249002 76.61203288 -20 82 C-11.04105302 88.52822493 -2.80784521 90.15563927 8.203125 88.7109375 C15.18195152 86.8102002 19.57480694 80.34106294 24 75 C22.48147523 71.16054818 20.22197262 69.32508945 17 66.8125 C13.16539369 63.77281207 9.50572017 60.66018041 5.9375 57.3125 C-3.41842418 48.83137697 -14.39862017 40.92843777 -26.1875 49.25 Z " fill="#171717" transform="translate(916,155)"/>
<path d="M0 0 C4.29 1.65 8.58 3.3 13 5 C11.68 8.63 10.36 12.26 9 16 C10.381875 15.505 11.76375 15.01 13.1875 14.5 C26.49702379 10.58212609 38.77859184 13.64861988 50.875 19.8125 C59.10418861 24.60887301 65.08996015 30.75482916 68 40 C69.28393224 49.16772667 68.0105469 57.46821118 62.52734375 65.03125 C57.54978577 70.58540453 51.53504904 73.38987551 44.18359375 74.37890625 C31.02837697 74.92193118 18.63287057 69.27483206 6.75 64.25 C4.37104675 63.25221064 1.99090056 62.2572591 -0.390625 61.265625 C-1.9379834 60.61255371 -1.9379834 60.61255371 -3.51660156 59.94628906 C-5.86855623 58.88130942 -5.86855623 58.88130942 -8 59 C-11.00738542 66.51200992 -13.21041767 72.99082429 -11 81 C-6.49755445 90.00489111 0.79120542 93.67159439 9.9140625 97.01953125 C19.61888994 100.10296376 30.02203583 99.59647427 40 98 C40.99 103.94 40.99 103.94 42 110 C29.4786737 115.21721929 12.25497963 112.97281208 0 108 C-10.84672269 103.4543324 -19.67908376 97.77108551 -25 87 C-32.41480819 68.63952259 -20.48414626 48.45635061 -13.5 31.75 C-12.63620064 29.66948587 -11.77291564 27.5887581 -10.91015625 25.5078125 C-7.36065369 16.9638304 -3.7868023 8.44203887 0 0 Z M2.5078125 32.15625 C-1.24953857 36.7507311 -3 42.13833574 -3 48 C1.01906677 49.67505712 5.0392802 51.34732319 9.06054688 53.01708984 C10.42642 53.58469606 11.79198514 54.15304402 13.15722656 54.72216797 C15.12743567 55.54332812 17.09876226 56.36175344 19.0703125 57.1796875 C20.25383301 57.67194824 21.43735352 58.16420898 22.65673828 58.67138672 C30.02265117 61.59860287 36.06040257 62.86157719 44 62 C48.43593507 60.01967185 51.06827807 57.42804915 53.3046875 53.05859375 C55.10062333 47.74141294 54.8518046 42.77175356 52.4375 37.75 C45.61004093 30.04722567 37.58330043 24.61925211 27.08203125 23.76171875 C17.19972826 23.53738929 9.91077792 25.40750013 2.5078125 32.15625 Z " fill="#171717" transform="translate(385,1008)"/>
<path d="M0 0 C9.70178679 9.48619153 14.78974848 21.2968838 15.8125 34.75 C15.93658585 48.63382757 13.15086077 59.47946841 4.8125 70.75 C4.235 71.61625 3.6575 72.4825 3.0625 73.375 C-7.22369168 84.23264678 -21.16273719 88.58660281 -35.8125 89 C-50.22650513 88.56007525 -62.30390424 83.21599135 -72.1875 72.75 C-82.35182312 61.61021401 -85.7386716 48.64573508 -85.0625 33.6875 C-83.74805669 20.08981055 -78.43157432 9.11691394 -68.58984375 -0.328125 C-61.76810192 -5.78551847 -53.81314829 -9.81239195 -45.1875 -11.25 C-44.18396484 -11.42982422 -44.18396484 -11.42982422 -43.16015625 -11.61328125 C-26.69065789 -14.08519511 -13.26142662 -9.36100703 0 0 Z M-61.75 12.25 C-69.58713693 21.74164361 -71.42229628 31.84142724 -70.43115234 43.79345703 C-69.22986596 53.43985894 -64.02091594 62.91042153 -56.5 69.0625 C-47.27431102 75.34717238 -37.44013014 77.30259322 -26.48828125 75.2421875 C-16.49082465 72.57824041 -9.16901408 67.19293359 -3.1875 58.75 C2.22083104 49.30061262 2.20806759 37.72783797 0.1171875 27.2734375 C-2.81358733 17.54523533 -8.27956427 9.78303546 -17.16796875 4.59375 C-32.16612437 -3.28520605 -50.09098771 0.16656971 -61.75 12.25 Z " fill="#161616" transform="translate(586.1875,52.25)"/>
<path d="M0 0 C5.0807599 1.62704099 8.95259682 4.67742931 13.1875 7.8125 C14.80588677 8.99623432 16.42437929 10.17982409 18.04296875 11.36328125 C18.86716309 11.96865723 19.69135742 12.5740332 20.54052734 13.19775391 C24.34542219 15.98589503 28.17308077 18.7422124 32 21.5 C33.50012464 22.58316073 35.00012429 23.6664946 36.5 24.75 C37.2425 25.28625 37.985 25.8225 38.75 26.375 C45.5 31.25 45.5 31.25 47.75366211 32.87768555 C49.24140349 33.95213849 50.72919578 35.02652095 52.21704102 36.10083008 C56.15503578 38.94443314 60.09192759 41.78954784 64.02734375 44.63671875 C64.84912109 45.23097656 65.67089844 45.82523438 66.51757812 46.4375 C68.09602805 47.57897791 69.67416785 48.72088482 71.25195312 49.86328125 C71.96158203 50.37632812 72.67121094 50.889375 73.40234375 51.41796875 C74.02616943 51.86938232 74.64999512 52.3207959 75.29272461 52.78588867 C76.84109387 53.88699554 78.41912991 54.94608661 80 56 C79.38801624 59.43950364 78.07941153 61.51564485 75.9375 64.25 C75.38964844 64.95640625 74.84179688 65.6628125 74.27734375 66.390625 C73.64505859 67.18726563 73.64505859 67.18726563 73 68 C67.91061189 66.40956621 64.12543357 63.2553049 60 60 C60.15855469 60.515625 60.31710937 61.03125 60.48046875 61.5625 C62.8336442 72.60296227 61.13308672 84.09519872 55.3515625 93.75390625 C53.65040473 96.24621382 51.86212859 98.62653175 50 101 C49.2575 102.051875 48.515 103.10375 47.75 104.1875 C40.13544175 111.97511639 31.25103343 116.25516019 20.375 116.4375 C3.34692184 116.40816485 -9.69109312 105.10685358 -22.65625 95.26953125 C-27.24284205 91.79908007 -31.89547396 88.42368358 -36.5625 85.0625 C-37.29992432 84.53124512 -38.03734863 83.99999023 -38.79711914 83.45263672 C-43.19104248 80.2918935 -47.59397826 77.14384994 -52 74 C-51.24306519 70.57023731 -50.1148058 68.52953931 -47.9375 65.75 C-47.38964844 65.04359375 -46.84179688 64.3371875 -46.27734375 63.609375 C-45.85582031 63.07828125 -45.43429687 62.5471875 -45 62 C-39.91907515 63.62709381 -36.04772997 66.67766211 -31.8125 69.8125 C-30.19922688 70.99089655 -28.58594539 72.16928164 -26.97265625 73.34765625 C-25.31495636 74.56490291 -23.65740318 75.78234937 -22 77 C-9.33004452 86.29626877 -9.33004452 86.29626877 3.625 95.1875 C4.66914062 95.88230469 5.71328125 96.57710937 6.7890625 97.29296875 C13.6480382 100.93940717 20.44250894 101.82297308 28 100 C36.2664593 96.62377212 42.78610602 89.18893014 46.4375 81.1875 C49.99342781 72.43322033 49.9820171 64.5736186 46.43359375 55.7578125 C41.44990272 46.17065755 32.73265888 40.31925229 24.03320312 34.40087891 C20.2459427 31.79145284 16.53477917 29.07589602 12.8125 26.375 C11.29045704 25.27461169 9.76832381 24.17434823 8.24609375 23.07421875 C3.1575441 19.39176062 -1.92449563 15.70042279 -7 12 C-6.38801624 8.56049636 -5.07941153 6.48435515 -2.9375 3.75 C-2.38964844 3.04359375 -1.84179688 2.3371875 -1.27734375 1.609375 C-0.85582031 1.07828125 -0.43429687 0.5471875 0 0 Z " fill="#171717" transform="translate(993,831)"/>
<path d="M0 0 C0.75994766 0.08805405 1.51989532 0.17610809 2.3028717 0.26683044 C13.69448652 1.72226376 24.87058778 4.43591138 36.05859375 6.97265625 C38.35983911 7.48586496 40.66127054 7.99824007 42.96289062 8.50976562 C47.13513026 9.44121055 51.3071447 10.37352075 55.47631836 11.31860352 C56.30360947 11.50576431 57.13090057 11.69292511 57.98326111 11.88575745 C60.12109375 12.41015625 60.12109375 12.41015625 63.12109375 13.41015625 C62.8125719 15.36912025 62.49915195 17.32731338 62.18359375 19.28515625 C62.00957031 20.37570312 61.83554688 21.46625 61.65625 22.58984375 C61.12109375 25.41015625 61.12109375 25.41015625 60.12109375 27.41015625 C52.43860526 26.32311868 44.9072777 24.73782408 37.34375 23.02734375 C35.87511002 22.69733368 35.87511002 22.69733368 34.37680054 22.36065674 C30.28130285 21.43937103 26.18633278 20.51651487 22.09594727 19.57275391 C1.32403838 13.99539622 1.32403838 13.99539622 -18.79296875 18.9375 C-25.82558961 23.90247765 -28.68149007 31.42092217 -30.62890625 39.53515625 C-31.49468869 49.49165427 -30.44671805 58.54546381 -23.79589844 66.47241211 C-17.59559776 72.7398327 -9.66079845 75.47438923 -1.25390625 77.34765625 C-0.25278809 77.58508545 0.74833008 77.82251465 1.77978516 78.06713867 C12.41517687 80.55847798 23.10038454 82.86131712 33.78369141 85.13842773 C34.79245331 85.35464279 34.79245331 85.35464279 35.82159424 85.57522583 C37.6597456 85.96868756 39.49855416 86.35907542 41.33740234 86.74926758 C44.12109375 87.41015625 44.12109375 87.41015625 46.12109375 88.41015625 C46.00546769 89.80679733 45.87810175 91.20246824 45.74609375 92.59765625 C45.67648438 93.37496094 45.606875 94.15226563 45.53515625 94.953125 C45.0810985 97.64748657 44.16591176 99.89342795 43.12109375 102.41015625 C24.15536183 98.81736517 5.34697537 94.48991647 -13.48291016 90.25494385 C-17.93484097 89.25420419 -22.38737006 88.25613351 -26.83984375 87.2578125 C-35.52010662 85.31114898 -44.19966352 83.36136304 -52.87890625 81.41015625 C-51.88890625 76.79015625 -50.89890625 72.17015625 -49.87890625 67.41015625 C-47.40494792 67.93098958 -44.93098958 68.45182292 -42.45703125 68.97265625 C-39.6574666 69.521693 -39.6574666 69.521693 -35.87890625 69.41015625 C-36.20503906 68.94867188 -36.53117187 68.4871875 -36.8671875 68.01171875 C-44.21713234 57.04100462 -45.45582344 45.17726352 -43.375 32.2890625 C-40.6139175 21.16584444 -35.42353553 11.01176276 -25.76171875 4.5078125 C-17.71154736 -0.18533721 -9.15105285 -1.09197594 0 0 Z " fill="#141414" transform="translate(92.87890625,439.58984375)"/>
<path d="M0 0 C11.28393161 0.50128437 22.56773681 1.00531826 33.85139179 1.51279354 C39.09170598 1.74838829 44.33205796 1.98306116 49.57250977 2.21557617 C54.63655226 2.44029887 59.70047771 2.66750984 64.76433372 2.89639473 C66.68942546 2.98298014 68.6145567 3.0686921 70.53972816 3.15348625 C80.05132817 3.57296639 89.52622927 4.01625896 99 5 C98.67 9.62 98.34 14.24 98 19 C93.38 19 88.76 19 84 19 C85.2375 20.44375 86.475 21.8875 87.75 23.375 C96.63339756 34.47531625 97.74020172 46.11772616 97 60 C95.65847215 70.2645342 91.387717 79.77025343 83.25 86.4375 C67.66105409 96.93122623 48.40702125 94.07517774 30.67919922 93.20043945 C27.87355476 93.06242891 25.06767695 92.93028856 22.26171875 92.79882812 C13.48535647 92.37933748 4.74272816 91.90357805 -4 91 C-4 86.38 -4 81.76 -4 77 C4.66960673 76.89970892 13.26343496 77.0559697 21.921875 77.5078125 C22.88121948 77.5568573 23.84056396 77.6059021 24.82897949 77.65643311 C28.80914763 77.8618436 32.7890062 78.07042811 36.76806641 78.29638672 C56.8210428 80.11447447 56.8210428 80.11447447 75 73 C83.00460325 63.64049731 83.91534221 53.8183425 83 42 C81.27690144 34.11708203 76.7840372 27.22131563 70.05078125 22.6875 C61.47793484 18.10633256 52.49893732 17.59368015 42.96875 17.1484375 C41.73709106 17.08467926 40.50543213 17.02092102 39.2364502 16.95523071 C35.32463401 16.75442498 31.4123758 16.56455682 27.5 16.375 C24.83845743 16.24119435 22.17704965 16.10489765 19.515625 15.96875 C13.01080544 15.63755022 6.50556744 15.31615487 0 15 C0 10.05 0 5.1 0 0 Z " fill="#151515" transform="translate(1056,574)"/>
<path d="M0 0 C1.16796875 2.50390625 1.16796875 2.50390625 2.1875 5.5625 C2.53167969 6.57441406 2.87585938 7.58632812 3.23046875 8.62890625 C3.48441406 9.41136719 3.73835938 10.19382813 4 11 C3.24976563 11.32871094 2.49953125 11.65742188 1.7265625 11.99609375 C-11.45679325 18.12286739 -22.27942382 27.5814096 -27.3671875 41.4765625 C-28.38272026 45.52615611 -28.37392907 49.04214751 -27 53 C-24.80176185 55.70552388 -23.10443333 57.44778333 -20 59 C-13.29803326 59.67019667 -8.56702247 57.63790279 -3.25195312 53.70727539 C-1.56944358 52.29925154 0.06349792 50.850046 1.6875 49.375 C2.89889555 48.30875468 4.11248866 47.24500156 5.328125 46.18359375 C6.23981445 45.38671143 6.23981445 45.38671143 7.16992188 44.57373047 C10.0303232 42.11399902 12.96345999 39.75787125 15.9375 37.4375 C16.93652344 36.65246094 17.93554688 35.86742187 18.96484375 35.05859375 C25.11121485 30.88981953 31.5214373 28.50874487 39.00390625 29.1796875 C46.18080496 30.55607903 51.65830685 34.88353687 55.9375 40.6875 C60.12816046 47.41795467 59.83717334 55.28880558 59 63 C54.7325531 79.51482813 41.2011093 94.21440289 27 103 C17.64476886 108 17.64476886 108 12 108 C11.32645501 106.56570999 10.66140299 105.12742943 10 103.6875 C9.62875 102.88699219 9.2575 102.08648437 8.875 101.26171875 C8 99 8 99 8 96 C8.60585937 95.79246094 9.21171875 95.58492188 9.8359375 95.37109375 C25.12632469 89.748936 37.09629353 79.02406273 44.27734375 64.3984375 C46.0290855 59.7002177 46.50855588 55.90280661 45 51 C41.85461762 47.29006181 39.79151174 45.21936879 34.9375 44.625 C25.98881692 45.47725553 20.28377751 51.37643956 13.9609375 57.30078125 C5.33673337 65.28325167 -4.69281569 74.14318054 -16.90234375 75.08984375 C-24.32962986 74.77172907 -29.992926 71.98859207 -35.30859375 66.8984375 C-40.76565719 60.77341941 -42.34387646 54.49202557 -42.2109375 46.44921875 C-40.93252464 31.60542497 -31.34018946 19.11491101 -20.44042969 9.64501953 C-6.22727653 -2.07575884 -6.22727653 -2.07575884 0 0 Z " fill="#171717" transform="translate(186,231)"/>
<path d="M0 0 C8.84435278 0.68033483 15.82705186 5.90010958 21.7890625 12.14453125 C31.80927388 25.08582898 35.58143653 39.82981151 34 56 C31.41746572 69.41157007 25.07698858 79.97104183 14 88 C0.42562325 96.39847836 -13.85948242 99.17772979 -29.63671875 96.34765625 C-37.13234634 94.28081456 -43.04234048 90.957699 -49 86 C-49.97066406 85.19755859 -49.97066406 85.19755859 -50.9609375 84.37890625 C-60.88485924 75.34337052 -66.23453797 60.90783399 -67.15625 47.7734375 C-67.57503151 36.78042282 -64.75898796 27.66200399 -58 19 C-54.60807637 19.59283621 -52.7892243 20.76743189 -50.25 23.0625 C-49.32960938 23.88427734 -49.32960938 23.88427734 -48.390625 24.72265625 C-47.93171875 25.14417969 -47.4728125 25.56570313 -47 26 C-47.34933594 26.74765625 -47.69867188 27.4953125 -48.05859375 28.265625 C-48.51363281 29.25046875 -48.96867187 30.2353125 -49.4375 31.25 C-50.11619141 32.71179688 -50.11619141 32.71179688 -50.80859375 34.203125 C-54.63971611 43.19684176 -53.58810632 52.18493443 -50.26171875 61.20703125 C-48.38646098 65.35814365 -46.09144723 68.66960032 -43 72 C-42.48695312 72.55429687 -41.97390625 73.10859375 -41.4453125 73.6796875 C-35.04330952 79.83663773 -27.19439177 82.20026972 -18.4375 82.4375 C-6.60393833 82.01737355 4.56699224 77.43300776 13 69 C19.20920113 59.70344609 20.96485948 51.12000553 20 40 C18.15068936 31.82520639 14.36104676 23.23166492 7.49609375 18.14453125 C4.06294205 16.0406639 0.82420602 14.27473534 -3 13 C-2.68991116 11.39536551 -2.37683713 9.79130769 -2.0625 8.1875 C-1.88847656 7.29417969 -1.71445313 6.40085937 -1.53515625 5.48046875 C-1 3 -1 3 0 0 Z " fill="#161616" transform="translate(125,701)"/>
<path d="M0 0 C1.175625 0.8971875 1.175625 0.8971875 2.375 1.8125 C1.84384894 6.32728398 0.00879708 9.15916857 -2.625 12.8125 C-3.12 12.544375 -3.615 12.27625 -4.125 12 C-11.84059064 8.33509445 -18.51792505 6.07802172 -26.9375 8.9375 C-31.61289677 12.19940472 -33.19925304 14.70795539 -34.3125 20.2109375 C-34.98658349 24.75163877 -35.625 29.21752077 -35.625 33.8125 C-34.95968262 33.86784912 -34.29436523 33.92319824 -33.60888672 33.98022461 C-30.57237287 34.23428083 -27.53619027 34.49210673 -24.5 34.75 C-23.45328125 34.83701172 -22.4065625 34.92402344 -21.328125 35.01367188 C-16.38542438 35.43599123 -11.50311856 35.87569868 -6.625 36.8125 C-6.54303882 40.99251995 -6.73054296 44.73462105 -7.625 48.8125 C-17.64469023 48.32449436 -27.64261798 47.83424071 -37.625 46.8125 C-37.60277122 47.72148544 -37.60277122 47.72148544 -37.58009338 48.64883423 C-37.46800785 57.15450515 -38.15802747 65.55995997 -38.90234375 74.0234375 C-39.0347974 75.5651269 -39.16691715 77.10684502 -39.29872131 78.64859009 C-39.57406531 81.85762222 -39.85256771 85.06635865 -40.13354492 88.27490234 C-40.49288726 92.37989023 -40.84551213 96.48542126 -41.19596004 100.59117699 C-41.4674265 103.76554397 -41.7417621 106.93965772 -42.01703072 110.11369705 C-42.14812636 111.62785172 -42.27848983 113.14206997 -42.40809441 114.656353 C-42.58948054 116.76904253 -42.77457158 118.88137542 -42.96069336 120.99365234 C-43.0650621 122.19291351 -43.16943085 123.39217468 -43.27696228 124.6277771 C-43.625 127.8125 -43.625 127.8125 -44.625 132.8125 C-49.245 132.4825 -53.865 132.1525 -58.625 131.8125 C-57.96578699 114.48896171 -56.33171411 97.24583232 -54.77496338 79.98565674 C-54.41710602 76.00954385 -54.06323362 72.03307631 -53.70898438 68.05664062 C-53.01813144 60.30824961 -52.32299862 52.56025094 -51.625 44.8125 C-52.29901855 44.81830078 -52.97303711 44.82410156 -53.66748047 44.83007812 C-54.55838379 44.83458984 -55.44928711 44.83910156 -56.3671875 44.84375 C-57.68759033 44.85245117 -57.68759033 44.85245117 -59.03466797 44.86132812 C-62.31485582 44.79949612 -65.3959834 44.3740681 -68.625 43.8125 C-68.295 39.8525 -67.965 35.8925 -67.625 31.8125 C-62.015 31.8125 -56.405 31.8125 -50.625 31.8125 C-50.3775 29.193125 -50.13 26.57375 -49.875 23.875 C-48.92344003 15.15457349 -47.14013178 7.15154714 -40.625 0.8125 C-28.41217097 -7.13373996 -12.56957992 -8.21407432 0 0 Z " fill="#141414" transform="translate(681.625,7.1875)"/>
<path d="M0 0 C3.41175854 0.12184852 4.34604745 1.34604745 6.8125 3.8125 C9 7 9 7 8.84765625 9.00390625 C7.81362701 11.43887834 6.67518587 12.45974699 4.625 14.125 C1.00162716 17.14886934 -2.51901824 20.25233959 -6 23.4375 C-6.94875 24.30246094 -7.8975 25.16742188 -8.875 26.05859375 C-9.926875 27.01958984 -9.926875 27.01958984 -11 28 C-5.52588376 34.50975985 0.23249232 40.75139686 6 47 C6.98569079 48.06899777 7.97136789 49.13800818 8.95703125 50.20703125 C10.44718406 51.82313657 11.93826783 53.43832865 13.43237305 55.05078125 C16.05777022 57.88527332 18.66595231 60.73318847 21.25 63.60546875 C21.78375244 64.19465088 22.31750488 64.78383301 22.86743164 65.39086914 C23.884682 66.51441591 24.89721192 67.64226201 25.90405273 68.77514648 C29.20481196 72.40638326 32.27288483 75.4124707 37.17578125 76.46875 C42.20092413 76.54224386 45.95812881 75.78241346 50.13671875 72.91015625 C53.93017482 69.02126732 55.91535296 63.95103672 58 59 C61.94465818 59.60645022 65.33992527 60.38526115 69 62 C67.43956281 72.06132634 62.94660093 79.58039298 55 86 C48.46034512 90.6410454 42.5128585 91.57161192 34.58984375 91.6640625 C25.80183362 90.03842406 19.88024407 84.45820182 13.875 78.1875 C13.21113281 77.51396484 12.54726562 76.84042969 11.86328125 76.14648438 C8.02890262 72.22581347 4.37788235 68.17977168 0.79052734 64.03344727 C-3.08440115 59.63280923 -7.1725831 55.42595009 -11.21484375 51.1796875 C-14.96050832 47.22632833 -18.56998444 43.2307974 -22 39 C-22.43570313 39.37511719 -22.87140625 39.75023437 -23.3203125 40.13671875 C-27.18607599 43.45859777 -31.07657648 46.74642927 -35 50 C-41.57142857 45 -41.57142857 45 -43 40 C-39.33333333 36.33333333 -35.66666667 32.66666667 -32 29 C-36.16704183 24.14256071 -40.41844996 19.46980492 -45 15 C-43.59155282 11.78475695 -41.89655214 9.67816132 -39.375 7.25 C-38.42753906 6.32960937 -38.42753906 6.32960937 -37.4609375 5.390625 C-36.73777344 4.70226562 -36.73777344 4.70226562 -36 4 C-31.75091664 5.59846469 -29.17774261 8.8130392 -26.25 12.125 C-25.74339844 12.68832031 -25.23679688 13.25164062 -24.71484375 13.83203125 C-23.47115468 15.21651531 -22.23483695 16.60761488 -21 18 C-17.74792908 16.58261511 -15.68638933 14.87473588 -13.25 12.3125 C-9.83360516 8.79995896 -6.28204815 5.53976348 -2.56640625 2.34765625 C-1.68751602 1.59150381 -0.81982149 0.81982149 0 0 Z " fill="#181818" transform="translate(233,171)"/>
<path d="M0 0 C11.25343685 -0.7701972 19.28888032 1.8925495 28.01953125 9.0625 C33.61511057 14.53667622 36.13768492 20.34112837 36.3125 28.125 C36.36857422 29.73761719 36.36857422 29.73761719 36.42578125 31.3828125 C35.3758112 40.30274156 29.85483281 47.77140914 25.125 55.1875 C24.47313721 56.22108643 23.82127441 57.25467285 23.1496582 58.31958008 C19.77990954 63.6546437 16.38043784 68.97042155 12.97265625 74.28125 C12.33634277 75.27487549 11.7000293 76.26850098 11.04443359 77.29223633 C9.83177724 79.18296624 8.61483789 81.07095791 7.39306641 82.95581055 C6.84440918 83.80957275 6.29575195 84.66333496 5.73046875 85.54296875 C5.24989014 86.28571045 4.76931152 87.02845215 4.27416992 87.79370117 C2.70884504 90.38296475 2.70884504 90.38296475 1 95 C7.435 98.96 7.435 98.96 14 103 C12.31482096 107.2129476 10.56523798 110.32315889 8 114 C2.88921143 111.48943719 -2.06843037 108.84536624 -7 106 C-8.01320313 107.60681641 -8.01320313 107.60681641 -9.046875 109.24609375 C-9.94729922 110.64362718 -10.84837496 112.04074099 -11.75 113.4375 C-12.1934375 114.14455078 -12.636875 114.85160156 -13.09375 115.58007812 C-13.75117188 116.59038086 -13.75117188 116.59038086 -14.421875 117.62109375 C-15.01887207 118.55586548 -15.01887207 118.55586548 -15.62792969 119.50952148 C-17.34755759 121.37755144 -18.49642784 121.73167221 -21 122 C-23.359375 120.78515625 -23.359375 120.78515625 -25.75 119.0625 C-26.54921875 118.49660156 -27.3484375 117.93070313 -28.171875 117.34765625 C-28.77515625 116.90292969 -29.3784375 116.45820312 -30 116 C-29.40074509 113.11694872 -28.54853768 111.00340943 -26.93359375 108.546875 C-26.53076172 107.928125 -26.12792969 107.309375 -25.71289062 106.671875 C-25.29201172 106.03765625 -24.87113281 105.4034375 -24.4375 104.75 C-24.01275391 104.1003125 -23.58800781 103.450625 -23.15039062 102.78125 C-22.1052694 101.18421082 -21.05330163 99.5916558 -20 98 C-24.61460999 94.06372812 -29.67901262 90.95029489 -34.8125 87.75 C-35.69615234 87.19570312 -36.57980469 86.64140625 -37.49023438 86.0703125 C-39.65844983 84.71078281 -41.82839585 83.35410776 -44 82 C-42.45657029 77.91894938 -40.50065501 74.58427218 -38 71 C-32.95270876 72.68913332 -28.78110077 75.59016895 -24.375 78.5 C-23.2303125 79.24830078 -23.2303125 79.24830078 -22.0625 80.01171875 C-19.03258771 81.99445083 -16.01285544 83.9914297 -13 86 C-3.24311187 71.55894213 6.05435628 56.84230002 15.1875 42 C15.65728271 41.24033936 16.12706543 40.48067871 16.61108398 39.69799805 C17.04235596 38.99328369 17.47362793 38.28856934 17.91796875 37.5625 C18.29719482 36.94503906 18.6764209 36.32757812 19.06713867 35.69140625 C21.23115045 31.76775442 21.37296136 28.40094409 21 24 C18.36211575 18.50440782 14.45934971 15.4520808 9 13 C5.69160986 12.09042835 2.39762095 11.46647665 -1 11 C-1.07442057 7.13013042 -1.04702186 3.7264085 0 0 Z " fill="#171717" transform="translate(317,973)"/>
<path d="M0 0 C1.4589426 0.47730838 2.91713496 0.95691042 4.375 1.4375 C5.59316406 1.83775391 5.59316406 1.83775391 6.8359375 2.24609375 C9 3 9 3 11 4 C10.3896361 7.59909772 9.4083949 10.67639922 7.93359375 14.01171875 C7.53076172 14.93404297 7.12792969 15.85636719 6.71289062 16.80664062 C6.29201172 17.75732422 5.87113281 18.70800781 5.4375 19.6875 C4.59960208 21.58580288 3.76480304 23.48547761 2.93359375 25.38671875 C2.56290771 26.22420654 2.19222168 27.06169434 1.81030273 27.92456055 C0.87877047 29.93917145 0.87877047 29.93917145 1 32 C2.03705078 32.44802979 3.07410156 32.89605957 4.14257812 33.35766602 C8.07161075 35.05521505 12.00043315 36.75325019 15.92919922 38.45141602 C17.61436522 39.1797342 19.29958467 39.90792875 20.98486328 40.63598633 C23.43797409 41.69578286 25.89087173 42.75607163 28.34375 43.81640625 C29.15207275 44.16547028 29.96039551 44.5145343 30.79321289 44.87417603 C34.75178356 46.58572067 38.70517827 48.30763813 42.6484375 50.05419922 C43.37824829 50.37670151 44.10805908 50.6992038 44.85998535 51.03147888 C46.22507061 51.63568221 47.5890037 52.24249826 48.95153809 52.85243225 C54.5241215 55.31707619 58.85443478 56.5297901 65 56 C70.41257219 53.34677834 72.46617542 50.25533988 75 45 C75.99801216 41.86339036 76.10568767 39.03226281 76.0625 35.75 C76.041875 34.1825 76.02125 32.615 76 31 C79.96 31 83.92 31 88 31 C90.38880674 40.55522694 88.49482254 49.87424364 83.609375 58.4375 C78.88264724 65.00516384 73.35711844 70.10347263 65.15234375 71.4765625 C54.72537771 71.958002 46.96288963 68.76314867 37.58447266 64.59033203 C33.08278902 62.59305869 28.56293334 60.63906 24.04296875 58.68359375 C14.34943393 54.4842151 4.67160713 50.24960169 -5 46 C-8.14479323 49.14479323 -9.18224336 53.24776422 -10.78125 57.34765625 C-12 60 -12 60 -14 61 C-16.3828125 60.00390625 -16.3828125 60.00390625 -19.125 58.5625 C-20.03507812 58.08941406 -20.94515625 57.61632812 -21.8828125 57.12890625 C-22.58148438 56.75636719 -23.28015625 56.38382812 -24 56 C-23.56856647 54.62308448 -23.12948836 53.24856381 -22.6875 51.875 C-22.44386719 51.10929687 -22.20023438 50.34359375 -21.94921875 49.5546875 C-20.84423487 46.58078027 -19.45689039 43.81583857 -18 41 C-20.22791998 39.87247351 -22.45725887 38.74791861 -24.6875 37.625 C-25.62625977 37.14933594 -25.62625977 37.14933594 -26.58398438 36.6640625 C-30.02193598 34.93608683 -33.41822734 33.43270907 -37 32 C-35.35 27.71 -33.7 23.42 -32 19 C-27.00913247 19.83181126 -23.14707756 21.02803713 -18.625 23.0625 C-17.98433594 23.34416016 -17.34367187 23.62582031 -16.68359375 23.91601562 C-15.11970341 24.60459421 -13.55946059 25.30144711 -12 26 C-11.67201416 25.2479126 -11.34402832 24.4958252 -11.00610352 23.72094727 C-9.52732692 20.33373358 -8.04496361 16.94810153 -6.5625 13.5625 C-6.04623047 12.37849609 -5.52996094 11.19449219 -4.99804688 9.97460938 C-4.25844727 8.28754883 -4.25844727 8.28754883 -3.50390625 6.56640625 C-3.04830322 5.52427979 -2.5927002 4.48215332 -2.12329102 3.40844727 C-1 1 -1 1 0 0 Z " fill="#171717" transform="translate(93,351)"/>
<path d="M0 0 C5.41917439 0.6773968 9.11760113 1.16910042 14 3 C12.87723429 10.05909078 11.62436599 17.03843148 10 24 C11.0209375 24.14695312 11.0209375 24.14695312 12.0625 24.296875 C20.86372482 25.65451074 29.39453695 27.75034849 38 30 C37.85831863 31.43791516 37.71148957 32.8753237 37.5625 34.3125 C37.48128906 35.11300781 37.40007813 35.91351563 37.31640625 36.73828125 C37 39 37 39 36 42 C35.26362305 41.84853516 34.52724609 41.69707031 33.76855469 41.54101562 C30.42984942 40.85663895 27.08995375 40.17825625 23.75 39.5 C22.59113281 39.26152344 21.43226563 39.02304688 20.23828125 38.77734375 C19.12324219 38.55175781 18.00820313 38.32617188 16.859375 38.09375 C15.83295898 37.88427734 14.80654297 37.67480469 13.74902344 37.45898438 C10.80694843 36.89021128 10.80694843 36.89021128 7 37 C5.27272252 44.46658736 3.56602447 51.93767088 1.87304688 59.41210938 C1.29566148 61.95028007 0.71370359 64.48741537 0.12695312 67.0234375 C-0.71930983 70.68482007 -1.54864476 74.34970469 -2.375 78.015625 C-2.63748535 79.13487366 -2.8999707 80.25412231 -3.17041016 81.4072876 C-6.08671487 93.74829398 -6.08671487 93.74829398 -3.61547852 105.75860596 C-0.76525297 109.71314852 3.43148817 110.75095665 8 112 C12.74060213 112.5998653 17.33430648 111.9331387 22 111 C23.61064629 114.65079826 24.44894091 118.0507432 25 122 C14.70491148 126.27055524 5.62715326 125.93465145 -4.90625 122.3984375 C-11.05503241 119.61906363 -15.4351621 115.4939604 -19 109.8125 C-23.01551175 98.5188732 -19.92526358 86.22467747 -17.3125 74.890625 C-17.04993408 73.71659119 -16.78736816 72.54255737 -16.5168457 71.33294678 C-15.96679534 68.88170822 -15.41198407 66.43153338 -14.85253906 63.98242188 C-13.99307287 60.219673 -13.1476516 56.45397689 -12.3046875 52.6875 C-11.76642158 50.29669552 -11.2273874 47.90606384 -10.6875 45.515625 C-10.43331299 44.38868225 -10.17912598 43.2617395 -9.91723633 42.10064697 C-9.68029053 41.06486511 -9.44334473 40.02908325 -9.19921875 38.96191406 C-8.99127686 38.04927795 -8.78333496 37.13664185 -8.5690918 36.1963501 C-8 34 -8 34 -7 32 C-7.556875 31.95101562 -8.11375 31.90203125 -8.6875 31.8515625 C-13.96567265 31.33444423 -18.88362365 30.39537537 -24 29 C-23.34 25.04 -22.68 21.08 -22 17 C-16.14771843 17.63843072 -10.8072779 18.7094938 -5 20 C-3.35 13.4 -1.7 6.8 0 0 Z " fill="#161616" transform="translate(703,28)"/>
<path d="M0 0 C3 3 6 6 9 9 C7.55218207 12.44428265 5.72305391 14.36130962 2.875 16.75 C2.15054688 17.36359375 1.42609375 17.9771875 0.6796875 18.609375 C0.12539063 19.06828125 -0.42890625 19.5271875 -1 20 C-0.17757812 20.08636719 0.64484375 20.17273438 1.4921875 20.26171875 C13.94801996 21.82948519 23.74255839 26.1789152 32 36 C32 37.32 32 38.64 32 40 C30.03125 41.921875 30.03125 41.921875 27.5 43.75 C26.24703125 44.67039062 26.24703125 44.67039062 24.96875 45.609375 C23.99421875 46.29773438 23.99421875 46.29773438 23 47 C22.01 45.948125 22.01 45.948125 21 44.875 C13.97459676 37.88928831 6.83610187 32.93089187 -3.3125 32.5625 C-18.09929867 32.98497996 -28.22622163 42.50672822 -38.93920898 51.70996094 C-43.57387009 55.68311517 -48.34286873 59.46133798 -53.16650391 63.20166016 C-56.26239873 65.60860194 -59.26834213 68.06947631 -62.1875 70.6875 C-65 73 -65 73 -68 73 C-69.82421875 71.03125 -69.82421875 71.03125 -71.6875 68.5 C-72.31011719 67.6646875 -72.93273437 66.829375 -73.57421875 65.96875 C-74.04472656 65.3190625 -74.51523437 64.669375 -75 64 C-73.41959423 59.71466897 -70.15677495 57.27034742 -66.75 54.4375 C-66.12738281 53.9115625 -65.50476563 53.385625 -64.86328125 52.84375 C-60.08267929 48.83266143 -55.19080333 44.97377893 -50.25952148 41.15063477 C-45.39335268 37.35979479 -40.70989476 33.38164482 -36.0456543 29.34643555 C-30.78047056 24.79326426 -25.40501175 20.38609937 -20 16 C-18.12477256 14.45860999 -16.24977321 12.91694246 -14.375 11.375 C-9.64469234 7.5022733 -4.84861279 3.72325575 0 0 Z " fill="#191919" transform="translate(1013,228)"/>
<path d="M0 0 C1.18390576 2.77631158 2.1675714 5.4642624 3.09448242 8.32763672 C3.38752762 9.20078522 3.68057281 10.07393372 3.98249817 10.97354126 C4.95184824 13.87184048 5.90382534 16.77553079 6.85546875 19.6796875 C7.52287107 21.68919855 8.1912027 23.69840118 8.86042786 25.70730591 C10.26220094 29.92341003 11.65600928 34.14203361 13.04370117 38.36279297 C14.82479377 43.77958393 16.62018927 49.19149042 18.42089367 54.60178947 C19.80161966 58.75254509 21.17737738 62.90493245 22.55135536 67.05792618 C23.21190435 69.05417562 23.87339058 71.05011517 24.5358181 73.04574203 C25.45977981 75.83350729 26.37767326 78.62319354 27.29370117 81.41357422 C27.7074147 82.65738861 27.7074147 82.65738861 28.12948608 83.92633057 C29.15084115 87.05497026 30 89.68637536 30 93 C25.71 94.32 21.42 95.64 17 97 C13 85.375 13 85.375 13 82 C12.34 82 11.68 82 11 82 C10.95875 82.804375 10.9175 83.60875 10.875 84.4375 C8.84966316 92.68351427 2.88579273 99.25279819 -4 104 C-7.55749807 105.96880715 -11.11002756 107.79341727 -15 109 C-18 108 -18 108 -18.984375 106.07421875 C-19.23703125 105.28660156 -19.4896875 104.49898437 -19.75 103.6875 C-20.01296875 102.90761719 -20.2759375 102.12773438 -20.546875 101.32421875 C-21.05272515 98.72955636 -21.13559232 97.39450689 -20 95 C-17.99609375 93.98046875 -17.99609375 93.98046875 -15.4375 93.1875 C-8.30503925 90.56512173 -3.06858261 86.58623277 0.4375 79.75 C4.62458215 70.36192343 3.88703659 60.78710747 0.87109375 51.15234375 C0.65008499 50.42449173 0.42907623 49.69663971 0.20137024 48.94673157 C-2.65987325 39.65347074 -5.91144953 30.48918959 -9.14770508 21.3215332 C-9.95397529 19.03255979 -10.75275447 16.74107664 -11.55078125 14.44921875 C-11.79758133 13.75761154 -12.04438141 13.06600433 -12.29866028 12.35343933 C-13.46406423 8.99647789 -14 6.60670355 -14 3 C-12.23358317 2.3012307 -10.46167336 1.61633417 -8.6875 0.9375 C-7.20830078 0.36322266 -7.20830078 0.36322266 -5.69921875 -0.22265625 C-3 -1 -3 -1 0 0 Z " fill="#171717" transform="translate(761,1028)"/>
<path d="M0 0 C4.22056194 0.5902614 7.16570473 2.04424884 10.8125 4.21875 C11.64895302 4.71317596 11.64895302 4.71317596 12.50230408 5.21759033 C14.33887344 6.30513473 16.16931803 7.40257943 18 8.5 C19.29325173 9.26800993 20.58696092 10.03525001 21.88110352 10.80175781 C24.57500457 12.39809764 27.26689586 13.99775232 29.95751953 15.59960938 C35.66090619 18.9911727 41.39067597 22.33750086 47.1192627 25.68624878 C50.11662264 27.43984018 53.11088179 29.19871015 56.10546875 30.95703125 C60.62344668 33.60968362 65.14755738 36.25158981 69.67578125 38.88671875 C71.70058979 40.07019454 73.72533321 41.25378173 75.75 42.4375 C76.6793335 42.97536133 77.60866699 43.51322266 78.56616211 44.06738281 C79.40542236 44.55948242 80.24468262 45.05158203 81.109375 45.55859375 C81.84124023 45.98454834 82.57310547 46.41050293 83.32714844 46.84936523 C85 48 85 48 86 50 C84.890625 52.34765625 84.890625 52.34765625 83.25 55.0625 C82.71890625 55.96097656 82.1878125 56.85945313 81.640625 57.78515625 C80 60 80 60 77 61 C74.91650391 60.09814453 74.91650391 60.09814453 72.4765625 58.6328125 C71.55335205 58.08584717 70.6301416 57.53888184 69.67895508 56.9753418 C68.6711499 56.364729 67.66334473 55.75411621 66.625 55.125 C64.43371045 53.82141839 62.242299 52.51804169 60.05078125 51.21484375 C58.88480126 50.51697668 57.71895011 49.81889431 56.55322266 49.12060547 C51.26291226 45.95674427 45.9373999 42.85304405 40.61553955 39.74267578 C38.80796648 38.68484689 37.00209518 37.62417261 35.19677734 36.5625 C29.41811837 33.16512468 23.63258851 29.78135613 17.82133484 26.43995667 C15.11349921 24.88216921 12.40944792 23.31787852 9.70565796 21.75308228 C8.40905621 21.00516343 7.11058647 20.26047303 5.81021118 19.51913452 C4.00932361 18.49215078 2.21507932 17.45438682 0.421875 16.4140625 C-0.60325195 15.8257666 -1.62837891 15.2374707 -2.68457031 14.63134766 C-5 13 -5 13 -6 10 C-4.78515625 7.51953125 -4.78515625 7.51953125 -3.0625 4.8125 C-2.49660156 3.91144531 -1.93070312 3.01039063 -1.34765625 2.08203125 C-0.90292969 1.39496094 -0.45820312 0.70789063 0 0 Z " fill="#191919" transform="translate(116,310)"/>
<path d="M0 0 C4.41004793 1.37439277 8.47238993 3.08628554 12.625 5.10546875 C13.26913849 5.41767365 13.91327698 5.72987854 14.57693481 6.05154419 C16.720186 7.09235455 18.8603611 8.13928531 21 9.1875 C21.73990173 9.54927338 22.47980347 9.91104675 23.24212646 10.28378296 C27.32634832 12.28146366 31.40775529 14.28478807 35.48730469 16.29199219 C39.36441742 18.19882944 43.24584521 20.09656664 47.12988281 21.98925781 C52.42557884 24.57066662 57.71359198 27.16727163 62.99707031 29.77359009 C65.08229491 30.79949959 67.1698708 31.8206437 69.25976562 32.83700562 C72.20333622 34.27005818 75.13761027 35.7206446 78.0703125 37.17578125 C78.96033966 37.60432404 79.85036682 38.03286682 80.7673645 38.47439575 C81.98104202 39.08322098 81.98104202 39.08322098 83.21923828 39.7043457 C83.92863556 40.0527803 84.63803284 40.4012149 85.368927 40.76020813 C87 42 87 42 87.79855347 43.98234558 C88.09394002 46.94088739 86.95730381 48.66451001 85.5625 51.25 C84.85287109 52.58804688 84.85287109 52.58804688 84.12890625 53.953125 C83.75636719 54.62859375 83.38382813 55.3040625 83 56 C77.07151169 54.29505496 71.76438394 51.49949534 66.28515625 48.72265625 C65.23839218 48.19667343 64.19162811 47.67069061 63.11314392 47.12876892 C59.76099997 45.4438142 56.41156154 43.75357203 53.0625 42.0625 C48.70066678 39.86299833 44.33747278 37.66623185 39.97265625 35.47265625 C38.89472809 34.93089752 37.81679993 34.38913879 36.70620728 33.83096313 C28.42750633 29.68397083 20.09856846 25.65040198 11.73097229 21.68605042 C5.78127843 18.86665561 -0.12263801 15.96730907 -6 13 C-4.58707905 8.1725201 -2.57025846 4.2837641 0 0 Z " fill="#181818" transform="translate(1010,795)"/>
<path d="M0 0 C1.60648159 4.91984988 2.04254421 8.76972119 2 14 C-10.35159667 16.08806071 -22.70348763 18.17437078 -35.05576134 20.25842285 C-40.79090191 21.22610192 -46.52593789 22.19439238 -52.26074219 23.1640625 C-57.79123959 24.09916453 -63.32200203 25.03268354 -68.85295486 25.96508789 C-70.96704324 26.32176907 -73.08103414 26.67902844 -75.19492722 27.03686523 C-78.1471138 27.53650731 -81.09963481 28.03412479 -84.05224609 28.53125 C-85.37394051 28.75566772 -85.37394051 28.75566772 -86.72233582 28.98461914 C-92.77189568 30 -92.77189568 30 -95 30 C-95.66 25.38 -96.32 20.76 -97 16 C-91.89297559 14.44525878 -86.85354625 13.35512735 -81.58959961 12.48779297 C-80.77891525 12.35095093 -79.9682309 12.21410889 -79.13298035 12.07312012 C-76.47343764 11.62537368 -73.81295392 11.18354308 -71.15234375 10.7421875 C-69.29338578 10.43137567 -67.434464 10.1203473 -65.57557678 9.80911255 C-61.68844073 9.15928048 -57.80081964 8.51245157 -53.9128418 7.86767578 C-48.93646065 7.04209728 -43.96146905 6.20845798 -38.98682308 5.37249565 C-35.15178914 4.72905728 -31.31600376 4.09019359 -27.47998238 3.45267105 C-25.64536526 3.14714894 -23.81099449 2.84014362 -21.97688103 2.5316124 C-19.41234299 2.10085545 -16.84684453 1.67634876 -14.28100586 1.25341797 C-13.52811279 1.12564972 -12.77521973 0.99788147 -11.99951172 0.86624146 C-7.95597932 0.20711272 -4.09612069 -0.12926187 0 0 Z " fill="#161616" transform="translate(140,666)"/>
<path d="M0 0 C3.00947682 2.00631788 4.50462948 3.46435138 5.625 6.9375 C6.23205567 10.2763062 6.13379583 12.66551043 4.875 15.8125 C1.92835288 19.25025497 -0.47504038 20.80938005 -5 21.375 C-8.45001843 20.9437477 -10.26337663 20.12848485 -13 18 C-15.34113009 14.98997559 -15.41216607 11.72258458 -15.328125 7.96875 C-14.80947233 4.85683396 -13.21445226 3.14932131 -11 1 C-7.51118574 -0.74440713 -3.80666824 -0.56541186 0 0 Z " fill="#1C1C1C" transform="translate(657,1053)"/>
<path d="M0 0 C3.49890004 2.11391877 4.70578686 3.11736059 6 7 C6.5024763 11.43854063 6.30188061 13.49057646 4 17.375 C0.78898905 20.18463458 -0.8476439 21.01043322 -5.00390625 21.23828125 C-8.44405138 20.82761813 -10.45378542 19.2430938 -13 17 C-15.35242347 13.79214982 -15.4684209 10.90350748 -15 7 C-11.05613311 0.03250183 -7.71929721 -0.98657685 0 0 Z " fill="#1B1B1B" transform="translate(356,186)"/>
<path d="M0 0 C2.75329021 1.79562405 4.52627461 3.05254922 6 6 C6.5811138 13.08958838 6.5811138 13.08958838 4.125 16.9375 C1.20157849 19.77493852 0.36073651 19.96451772 -3.8125 20.375 C-7.23041924 20.31907041 -7.97465048 20.0177986 -10.9375 17.9375 C-13.40599406 14.42176604 -14 12.28616677 -14 8 C-11.11416745 1.31701936 -7.21187476 -0.88566883 0 0 Z " fill="#1E1E1E" transform="translate(91,290)"/>
<path d="M0 0 C2.51019137 3.54379957 2.86489761 5.58503982 2.609375 9.84375 C1.80106665 13.44202589 0.08960633 14.93766516 -2.875 17 C-6.70550005 18.30400002 -8.33233544 18.20871714 -12.125 16.75 C-14.875 15 -14.875 15 -16.875 12 C-17.60439154 7.47098739 -17.45032663 3.98627422 -15.125 0 C-10.28404391 -4.30307208 -5.22376274 -3.6339219 0 0 Z " fill="#1C1C1C" transform="translate(21.875,686)"/>
<path d="M0 0 C2.75329021 1.79562405 4.52627461 3.05254922 6 6 C6.5811138 13.08958838 6.5811138 13.08958838 4.125 16.9375 C1.43129792 19.55197555 0.51513465 19.94056139 -3.25 20.375 C-8.04749221 19.89525078 -9.77622087 18.53080572 -13 15 C-14.36771157 11.21867977 -14.21720255 9.58301737 -12.8125 5.8125 C-9.30483141 0.36956598 -6.53083573 -0.80203246 0 0 Z " fill="#181818" transform="translate(1126,848)"/>
<path d="M0 0 C0.66 0.33 1.32 0.66 2 1 C-3.94 6.94 -9.88 12.88 -16 19 C-16 13.49581073 -10.69222469 9.76817235 -7 6 C-4.72454022 3.90179524 -2.40856363 1.94734932 0 0 Z " fill="#5B5B5B" transform="translate(170,237)"/>
<path d="M0 0 C0.66 0.33 1.32 0.66 2 1 C-2.95 5.95 -7.9 10.9 -13 16 C-13 11.08924079 -9.30469813 8.39044878 -6 5 C-4.05397986 3.23549584 -2.07285289 1.6178364 0 0 Z " fill="#636363" transform="translate(807,1004)"/>
<path d="M0 0 C0.66 0.33 1.32 0.66 2 1 C-2.62 5.62 -7.24 10.24 -12 15 C-12 10.09687565 -8.29800369 7.38658643 -5 4 C-3.37458956 2.61667196 -1.72614587 1.25537882 0 0 Z " fill="#606060" transform="translate(1010,310)"/>
<path d="M0 0 C0.66 0.33 1.32 0.66 2 1 C-2.29 5.29 -6.58 9.58 -11 14 C-11.66 13.67 -12.32 13.34 -13 13 C-11.58791833 11.39179588 -10.17013964 9.78859292 -8.75 8.1875 C-7.96109375 7.29417969 -7.1721875 6.40085937 -6.359375 5.48046875 C-4.34120555 3.35871775 -2.40083295 1.65745577 0 0 Z " fill="#5A5A5A" transform="translate(1026,676)"/>
<path d="M0 0 C0.66 0.33 1.32 0.66 2 1 C-2.62 5.62 -7.24 10.24 -12 15 C-12 11.11566834 -10.82920314 10.32394504 -8.25 7.5 C-7.55390625 6.7265625 -6.8578125 5.953125 -6.140625 5.15625 C-4.19891408 3.20036601 -2.25069252 1.58156772 0 0 Z " fill="#6A6A6A" transform="translate(480,1064)"/>
<path d="M0 0 C0.66 0.33 1.32 0.66 2 1 C-2.62 5.62 -7.24 10.24 -12 15 C-12 11.11566834 -10.82920314 10.32394504 -8.25 7.5 C-7.55390625 6.7265625 -6.8578125 5.953125 -6.140625 5.15625 C-4.19891408 3.20036601 -2.25069252 1.58156772 0 0 Z " fill="#626262" transform="translate(56,562)"/>
<path d="M0 0 C0.66 0.33 1.32 0.66 2 1 C-1.63 4.63 -5.26 8.26 -9 12 C-9.66 11.67 -10.32 11.34 -11 11 C-7.6189962 6.86378916 -4.33409466 3.18683431 0 0 Z " fill="#676767" transform="translate(897,942)"/>
<path d="M0 0 C0.66 0.33 1.32 0.66 2 1 C-1.3 4.3 -4.6 7.6 -8 11 C-8.33 10.34 -8.66 9.68 -9 9 C-8.06725891 7.87105124 -7.12859878 6.74699124 -6.1875 5.625 C-5.66542969 4.99851562 -5.14335937 4.37203125 -4.60546875 3.7265625 C-3 2 -3 2 0 0 Z " fill="#5C5C5C" transform="translate(139,802)"/>
<path d="M0 0 C0.66 0.33 1.32 0.66 2 1 C-0.97 3.97 -3.94 6.94 -7 10 C-7.66 9.67 -8.32 9.34 -9 9 C-6.21000549 5.51250686 -3.74764169 2.49842779 0 0 Z " fill="#686868" transform="translate(1059,696)"/>
<path d="M0 0 C0.66 0.33 1.32 0.66 2 1 C-0.64 3.64 -3.28 6.28 -6 9 C-6.66 8.67 -7.32 8.34 -8 8 C-5.58443874 4.80800833 -3.31996462 2.25283313 0 0 Z " fill="#646464" transform="translate(66,445)"/>
<path d="M0 0 C2.0625 0.25 2.0625 0.25 4 1 C4.33 1.66 4.66 2.32 5 3 C4.2575 3.103125 3.515 3.20625 2.75 3.3125 C-0.17014018 4.04253504 -1.73187554 5.06789398 -4 7 C-2.92598892 4.08482708 -2.22189824 2.22189824 0 0 Z " fill="#7E7E7E" transform="translate(67,720)"/>
<path d="M0 0 C0.66 0.33 1.32 0.66 2 1 C0.02 2.98 -1.96 4.96 -4 7 C-4.66 6.67 -5.32 6.34 -6 6 C-4 4 -2 2 0 0 Z " fill="#636363" transform="translate(644,6)"/>
</svg>
